<svg xmlns="http://www.w3.org/2000/svg" xmlns:xlink="http://www.w3.org/1999/xlink" width="200" zoomAndPan="magnify" viewBox="0 0 150 149.999998" height="200" preserveAspectRatio="xMidYMid meet" version="1.0"><defs><g/></defs><rect x="-15" width="180" fill="#ffffff" y="-15" height="179.999997" fill-opacity="1"/><rect x="-15" width="180" fill="#ffffff" y="-15" height="179.999997" fill-opacity="1"/><rect x="-15" width="180" fill="#000000" y="-15" height="179.999997" fill-opacity="1"/><g fill="#ffffff" fill-opacity="1"><g transform="translate(1.412952, 66.149734)"><g><path d="M 13.921875 -0.402344 L 14.558594 -0.0234375 L 15.21875 0.046875 L 15.738281 -0.117188 L 15.976562 -0.589844 L 16.023438 -9.203125 L 15.953125 -9.605469 L 15.953125 -11.941406 L 16.023438 -12.507812 L 15.953125 -15.785156 L 15.714844 -16.257812 L 15.242188 -16.519531 L 12.316406 -16.496094 L 11.871094 -16.234375 L 11.609375 -15.738281 L 11.585938 -15.242188 L 11.65625 -14.867188 L 11.585938 -13.875 L 11.632812 -13.355469 L 11.585938 -9.132812 L 11.445312 -8.730469 L 11.089844 -8.894531 L 9.414062 -10.570312 L 8.753906 -11.089844 L 4.105469 -15.785156 L 3.75 -16.070312 L 3.210938 -16.351562 L 2.5 -16.519531 L 1.957031 -16.28125 L 1.746094 -15.832031 L 1.746094 -8.683594 L 1.722656 -8.28125 L 1.769531 -7.316406 L 1.699219 -6.914062 L 1.746094 -3.042969 L 1.699219 -2.59375 L 1.746094 -0.613281 L 1.957031 -0.164062 L 2.453125 0 L 3.421875 0.046875 L 3.941406 0 L 4.859375 0.0703125 L 5.355469 0.046875 L 5.828125 -0.1875 L 6.0625 -0.921875 L 6.089844 -6.890625 L 6.136719 -7.363281 L 6.300781 -7.761719 L 6.605469 -7.644531 L 6.914062 -7.246094 L 8.589844 -5.640625 L 8.894531 -5.285156 L 9.296875 -5.027344 L 12.953125 -1.390625 L 13.566406 -0.707031 Z M 13.921875 -0.402344 "/></g></g></g><g fill="#ffffff" fill-opacity="1"><g transform="translate(19.203603, 66.149734)"><g><path d="M 1.699219 -0.683594 L 2.003906 -0.234375 L 2.453125 0.0234375 L 7.785156 -0.0234375 L 8.210938 0.046875 L 9.652344 -0.0234375 L 11.089844 0.0703125 L 11.539062 0.0234375 L 12.035156 -0.210938 L 12.246094 -0.660156 L 12.292969 -1.109375 L 12.269531 -2.570312 L 12.316406 -3.019531 L 12.011719 -3.492188 L 11.304688 -3.726562 L 8.1875 -3.777344 L 7.738281 -3.703125 L 7.21875 -3.75 L 6.703125 -3.703125 L 6.207031 -3.988281 L 5.992188 -4.71875 L 6.015625 -5.875 L 6.230469 -6.371094 L 6.65625 -6.628906 L 7.574219 -6.628906 L 8.046875 -6.679688 L 9.296875 -6.605469 L 9.933594 -6.65625 L 10.429688 -6.605469 L 10.855469 -6.628906 L 11.328125 -6.890625 L 11.5625 -7.339844 L 11.609375 -9.203125 L 11.5625 -9.675781 L 11.351562 -10.125 L 10.949219 -10.382812 L 10.003906 -10.40625 L 9.53125 -10.359375 L 9.039062 -10.359375 L 8.496094 -10.40625 L 6.628906 -10.382812 L 6.230469 -10.640625 L 5.945312 -11.066406 L 5.898438 -11.796875 L 6.136719 -12.484375 L 6.867188 -12.695312 L 11.398438 -12.71875 L 11.894531 -12.976562 L 12.152344 -13.402344 L 12.105469 -14.371094 L 12.035156 -14.820312 L 12.058594 -15.339844 L 12.128906 -15.785156 L 11.894531 -16.257812 L 11.398438 -16.472656 L 9.507812 -16.496094 L 9.085938 -16.445312 L 8.613281 -16.519531 L 7.574219 -16.472656 L 7.101562 -16.519531 L 6.183594 -16.496094 L 5.757812 -16.542969 L 2.667969 -16.472656 L 1.980469 -16.304688 L 1.746094 -15.785156 L 1.792969 -14.84375 L 1.699219 -14.160156 L 1.792969 -12.953125 L 1.746094 -12.460938 L 1.792969 -12.035156 L 1.792969 -7.8125 L 1.722656 -7.316406 L 1.792969 -6.394531 L 1.746094 -5.449219 L 1.816406 -4.957031 L 1.769531 -4.4375 L 1.792969 -3.988281 L 1.722656 -3.5625 L 1.769531 -3.019531 L 1.769531 -2.546875 L 1.816406 -1.628906 L 1.792969 -1.15625 Z M 1.699219 -0.683594 "/></g></g></g><g fill="#ffffff" fill-opacity="1"><g transform="translate(32.723563, 66.149734)"><g><path d="M 0.308594 -0.636719 L 0.425781 -0.140625 L 0.898438 -0.0234375 L 2.972656 -0.0234375 L 3.585938 0.046875 L 4.128906 -0.1875 L 4.554688 -0.613281 L 4.957031 -1.414062 L 5.355469 -1.863281 L 5.921875 -2.101562 L 6.394531 -2.054688 L 7.714844 -2.078125 L 8.210938 -2.003906 L 8.753906 -2.078125 L 9.179688 -2.078125 L 9.675781 -2.03125 L 10.785156 -2.078125 L 11.5625 -1.816406 L 12.058594 -1.4375 L 12.175781 -1.015625 L 12.4375 -0.589844 L 12.835938 -0.210938 L 13.449219 0.0234375 L 13.875 -0.0234375 L 14.699219 0.046875 L 16.164062 0 L 16.589844 -0.140625 L 16.683594 -0.636719 L 16.542969 -1.226562 L 16.375 -1.652344 L 16.070312 -2.054688 L 15.929688 -2.523438 L 15.691406 -2.878906 L 15.550781 -3.328125 L 15.148438 -4.175781 L 14.984375 -4.625 L 14.75 -5.027344 L 14.417969 -5.898438 L 14.160156 -6.277344 L 13.96875 -6.75 L 13.757812 -7.148438 L 13.59375 -7.621094 L 13.378906 -7.976562 L 13.238281 -8.449219 L 12.976562 -8.871094 L 12.789062 -9.273438 L 12.554688 -9.675781 L 12.4375 -10.125 L 11.964844 -10.949219 L 11.820312 -11.398438 L 11.398438 -12.292969 L 11.28125 -12.671875 L 10.925781 -13.496094 L 10.453125 -14.371094 L 10.074219 -15.265625 L 9.863281 -15.621094 L 9.722656 -16.070312 L 9.296875 -16.519531 L 8.496094 -16.730469 L 7.738281 -16.496094 L 7.292969 -16.070312 L 7.148438 -15.644531 L 6.136719 -13.519531 L 5.875 -13.097656 L 4.554688 -10.125 L 4.4375 -9.722656 L 4.175781 -9.296875 L 3.800781 -8.449219 L 3.445312 -7.835938 L 3.28125 -7.386719 L 2.949219 -6.773438 L 2.808594 -6.277344 L 2.59375 -5.898438 L 2.429688 -5.425781 L 1.769531 -4.199219 L 1.085938 -2.476562 L 0.800781 -2.101562 L 0.589844 -1.628906 Z M 7.597656 -5.828125 L 7.148438 -6.015625 L 7.078125 -6.488281 L 8.023438 -8.636719 L 8.234375 -9.015625 L 8.542969 -9.25 L 8.824219 -9.0625 L 9.132812 -8.140625 L 9.390625 -7.738281 L 9.484375 -7.363281 L 9.722656 -6.890625 L 9.886719 -6.464844 L 9.839844 -6.039062 L 9.4375 -5.851562 Z M 7.597656 -5.828125 "/></g></g></g><g fill="#ffffff" fill-opacity="1"><g transform="translate(49.853561, 66.149734)"><g><path d="M 1.816406 -0.753906 L 1.980469 -0.234375 L 2.453125 0 L 2.902344 0.0234375 L 3.871094 -0.046875 L 4.367188 0 L 5.074219 0 L 5.804688 -0.234375 L 5.96875 -0.683594 L 6.015625 -1.179688 L 5.921875 -1.675781 L 5.992188 -2.691406 L 5.945312 -4.152344 L 6.160156 -4.625 L 6.628906 -4.859375 L 7.054688 -4.859375 L 7.480469 -4.882812 L 8.070312 -4.695312 L 8.449219 -4.292969 L 9.0625 -3.46875 L 9.226562 -3.019531 L 9.886719 -1.839844 L 10.195312 -1.390625 L 10.40625 -0.992188 L 10.6875 -0.613281 L 11.160156 -0.1875 L 11.75 -0.046875 L 12.601562 0 L 13.121094 -0.046875 L 13.59375 0 L 14.535156 0 L 15.054688 -0.046875 L 15.550781 -0.164062 L 15.644531 -0.660156 L 15.339844 -1.25 L 14.582031 -2.40625 L 14.371094 -2.808594 L 14.085938 -3.234375 L 13.851562 -3.65625 L 13.542969 -4.035156 L 12.835938 -5.261719 L 12.765625 -5.828125 L 13.027344 -6.324219 L 13.6875 -6.960938 L 13.96875 -7.363281 L 14.132812 -7.8125 L 14.394531 -8.234375 L 14.558594 -8.636719 L 14.820312 -9.53125 L 14.84375 -11.398438 L 14.722656 -11.84375 L 14.652344 -12.292969 L 14.535156 -12.765625 L 13.898438 -14.0625 L 13.566406 -14.417969 L 13.355469 -14.773438 L 12.175781 -15.667969 L 11.351562 -16.09375 L 9.390625 -16.496094 L 8.800781 -16.542969 L 8.117188 -16.519531 L 7.597656 -16.542969 L 7.125 -16.496094 L 6.605469 -16.542969 L 6.207031 -16.496094 L 4.789062 -16.542969 L 4.34375 -16.472656 L 3.375 -16.566406 L 2.925781 -16.496094 L 2.40625 -16.519531 L 1.957031 -16.304688 L 1.769531 -15.808594 L 1.699219 -9.203125 L 1.769531 -8.519531 L 1.769531 -7.339844 L 1.722656 -6.84375 L 1.699219 -5.945312 L 1.769531 -5.425781 L 1.699219 -4.460938 L 1.792969 -3.089844 L 1.746094 -2.59375 Z M 6.628906 -8.683594 L 6.230469 -8.894531 L 5.992188 -9.390625 L 5.921875 -12.035156 L 6.207031 -12.507812 L 6.679688 -12.742188 L 7.054688 -12.765625 L 8.351562 -12.742188 L 9.4375 -12.601562 L 10.171875 -12.152344 L 10.40625 -11.796875 L 10.570312 -11.421875 L 10.617188 -10.738281 L 10.546875 -10.097656 L 10.359375 -9.628906 L 10.097656 -9.226562 L 9.816406 -8.941406 L 9.460938 -8.777344 L 7.621094 -8.613281 L 7.148438 -8.683594 Z M 6.628906 -8.683594 "/></g></g></g><g fill="#ffffff" fill-opacity="1"><g transform="translate(66.204927, 66.149734)"><g><path d="M 6.347656 0.210938 L 8.210938 0.257812 L 8.683594 0.210938 L 9.15625 0.09375 L 9.628906 0.0234375 L 10.097656 -0.164062 L 10.523438 -0.210938 L 10.972656 -0.425781 L 12.578125 -1.390625 L 13.261719 -2.101562 L 13.496094 -2.429688 L 13.757812 -2.949219 L 13.898438 -3.375 L 14.039062 -3.777344 L 14.183594 -4.957031 L 14.132812 -5.710938 L 13.78125 -7.078125 L 13.519531 -7.457031 L 12.90625 -8.164062 L 12.484375 -8.542969 L 12.105469 -8.730469 L 11.679688 -8.992188 L 9.839844 -9.558594 L 9.367188 -9.628906 L 8.894531 -9.652344 L 8.402344 -9.746094 L 7.714844 -9.746094 L 6.464844 -10.003906 L 5.59375 -10.429688 L 5.238281 -10.761719 L 5.144531 -11.46875 L 5.261719 -12.105469 L 5.546875 -12.410156 L 5.898438 -12.671875 L 6.277344 -12.882812 L 6.703125 -12.976562 L 7.457031 -13.003906 L 8.210938 -12.90625 L 8.636719 -12.789062 L 9.0625 -12.507812 L 9.460938 -12.175781 L 9.816406 -11.703125 L 10.335938 -11.398438 L 11.445312 -11.492188 L 12.082031 -11.445312 L 12.554688 -11.445312 L 12.976562 -11.398438 L 13.425781 -11.726562 L 13.617188 -12.128906 L 13.519531 -12.578125 L 13.472656 -13.027344 L 12.8125 -14.253906 L 12.292969 -14.960938 L 10.738281 -16.046875 L 9.414062 -16.496094 L 8.496094 -16.683594 L 6.679688 -16.730469 L 6.160156 -16.589844 L 5.6875 -16.566406 L 5.261719 -16.496094 L 4.367188 -16.210938 L 3.5625 -15.738281 L 2.429688 -14.960938 L 1.605469 -13.851562 L 1.179688 -12.554688 L 1.109375 -11.398438 L 1.132812 -10.664062 L 1.296875 -9.722656 L 1.675781 -8.894531 L 2.546875 -7.8125 L 4.152344 -6.9375 L 5.003906 -6.65625 L 8.707031 -6.230469 L 9.558594 -5.828125 L 9.863281 -5.546875 L 10.003906 -4.957031 L 9.816406 -4.367188 L 9.507812 -4.011719 L 8.707031 -3.65625 L 7.976562 -3.609375 L 7.550781 -3.539062 L 6.347656 -3.65625 L 5.945312 -3.871094 L 5.546875 -4.128906 L 4.765625 -4.980469 L 4.292969 -5.167969 L 3.871094 -5.121094 L 3.421875 -5.191406 L 1.605469 -5.097656 L 1.179688 -4.90625 L 0.992188 -4.414062 L 1.0625 -3.941406 L 1.15625 -3.46875 L 1.296875 -3.042969 L 1.746094 -2.171875 L 2.078125 -1.863281 L 2.382812 -1.511719 L 3.210938 -0.992188 L 3.539062 -0.636719 L 3.988281 -0.425781 L 4.460938 -0.28125 L 5.378906 0.046875 Z M 6.347656 0.210938 "/></g></g></g><g fill="#ffffff" fill-opacity="1"><g transform="translate(81.258551, 66.149734)"><g><path d="M 1.792969 -0.660156 L 1.980469 -0.164062 L 2.523438 0.046875 L 2.972656 0.046875 L 3.703125 -0.0234375 L 4.390625 0 L 4.882812 0.0703125 L 5.378906 0.0234375 L 5.898438 -0.1875 L 6.089844 -0.660156 L 6.113281 -1.132812 L 6.039062 -1.652344 L 6.089844 -2.078125 L 6.039062 -2.546875 L 6.089844 -2.996094 L 6.0625 -3.515625 L 6.113281 -4.011719 L 6.039062 -5.875 L 6.277344 -6.371094 L 6.75 -6.65625 L 7.246094 -6.65625 L 7.667969 -6.605469 L 9.0625 -6.605469 L 9.53125 -6.65625 L 10.003906 -6.605469 L 10.453125 -6.605469 L 10.878906 -6.371094 L 11.113281 -5.898438 L 11.183594 -4.460938 L 11.113281 -4.011719 L 11.207031 -2.335938 L 11.113281 -1.628906 L 11.183594 -0.707031 L 11.421875 -0.210938 L 11.894531 0.0234375 L 12.363281 -0.0234375 L 13.074219 0.046875 L 14.699219 0.046875 L 15.171875 -0.210938 L 15.433594 -0.660156 L 15.527344 -1.628906 L 15.527344 -5.425781 L 15.433594 -6.324219 L 15.457031 -6.796875 L 15.410156 -7.292969 L 15.410156 -7.761719 L 15.480469 -8.257812 L 15.457031 -9.15625 L 15.503906 -9.675781 L 15.433594 -11.988281 L 15.550781 -13.945312 L 15.457031 -14.394531 L 15.410156 -14.84375 L 15.503906 -15.316406 L 15.457031 -15.785156 L 15.21875 -16.257812 L 14.488281 -16.496094 L 13.285156 -16.519531 L 12.53125 -16.445312 L 12.058594 -16.445312 L 11.351562 -16.234375 L 11.160156 -15.550781 L 11.207031 -12.976562 L 11.113281 -12.578125 L 11.113281 -11.207031 L 10.855469 -10.738281 L 10.453125 -10.5 L 9.507812 -10.5 L 9.085938 -10.546875 L 6.796875 -10.523438 L 6.300781 -10.738281 L 6.113281 -11.183594 L 6.113281 -12.601562 L 6.160156 -13.027344 L 6.089844 -15.363281 L 6.113281 -15.761719 L 5.828125 -16.257812 L 5.097656 -16.496094 L 3.703125 -16.445312 L 3.234375 -16.496094 L 2.785156 -16.445312 L 2.054688 -16.234375 L 1.792969 -15.832031 L 1.722656 -15.316406 L 1.722656 -14.867188 L 1.769531 -14.347656 L 1.699219 -13.898438 L 1.816406 -12.484375 L 1.746094 -11.964844 L 1.792969 -11.5625 L 1.699219 -11.089844 L 1.792969 -9.652344 L 1.746094 -9.15625 L 1.746094 -7.785156 L 1.816406 -7.339844 L 1.769531 -6.605469 L 1.816406 -6.0625 L 1.746094 -4.957031 L 1.792969 -4.4375 L 1.722656 -3.964844 L 1.792969 -3.539062 L 1.746094 -3.066406 Z M 1.792969 -0.660156 "/></g></g></g><g fill="#ffffff" fill-opacity="1"><g transform="translate(98.530109, 66.149734)"><g><path d="M 8.824219 0.28125 L 10.148438 0.257812 L 11.5625 0.0703125 L 13.332031 -0.519531 L 14.109375 -0.945312 L 14.464844 -1.226562 L 14.914062 -1.4375 L 15.574219 -2.003906 L 15.878906 -2.429688 L 16.210938 -2.761719 L 17.25 -4.34375 L 17.601562 -5.238281 L 17.792969 -6.136719 L 17.816406 -6.558594 L 17.933594 -7.03125 L 17.957031 -7.527344 L 18.050781 -8.210938 L 17.980469 -9.390625 L 17.816406 -10.359375 L 17.226562 -12.128906 L 16.777344 -13.003906 L 16.257812 -13.710938 L 15.597656 -14.441406 L 14.914062 -15.03125 L 14.371094 -15.410156 L 13.664062 -15.714844 L 13.308594 -15.976562 L 11.492188 -16.542969 L 10.125 -16.777344 L 9.484375 -16.800781 L 6.984375 -16.445312 L 5.214844 -15.785156 L 4.859375 -15.527344 L 4.4375 -15.316406 L 3.632812 -14.722656 L 2.476562 -13.378906 L 1.746094 -12.128906 L 1.390625 -11.230469 L 0.992188 -9.414062 L 0.921875 -7.503906 L 0.992188 -7.007812 L 1.109375 -6.582031 L 1.15625 -6.136719 L 1.367188 -5.238281 L 2.453125 -3.089844 L 2.738281 -2.808594 L 3.042969 -2.429688 L 3.398438 -2.101562 L 3.65625 -1.792969 L 4.4375 -1.179688 L 6.277344 -0.234375 L 6.960938 0 L 7.480469 0.046875 L 8.328125 0.234375 Z M 10.148438 -3.894531 L 8.847656 -3.894531 L 8.328125 -3.964844 L 7.480469 -4.316406 L 7.101562 -4.53125 L 6.464844 -5.050781 L 6.160156 -5.378906 L 5.828125 -5.828125 L 5.710938 -6.207031 L 5.5 -6.628906 L 5.308594 -7.503906 L 5.308594 -8.941406 L 5.425781 -9.367188 L 5.5 -9.816406 L 5.6875 -10.242188 L 5.828125 -10.664062 L 6.394531 -11.421875 L 7.574219 -12.222656 L 7.882812 -12.339844 L 8.800781 -12.578125 L 9.460938 -12.625 L 10.59375 -12.484375 L 11.019531 -12.386719 L 11.445312 -12.199219 L 12.175781 -11.679688 L 13.097656 -10.714844 L 13.378906 -9.816406 L 13.59375 -9.367188 L 13.664062 -8.941406 L 13.617188 -7.503906 L 13.425781 -6.628906 L 13.261719 -6.207031 L 13.003906 -5.78125 L 12.859375 -5.425781 L 12.53125 -5.050781 L 11.398438 -4.269531 L 10.972656 -4.152344 L 10.617188 -3.988281 Z M 10.148438 -3.894531 "/></g></g></g><g fill="#ffffff" fill-opacity="1"><g transform="translate(117.453327, 66.149734)"><g><path d="M 1.816406 -0.753906 L 1.980469 -0.234375 L 2.453125 0 L 2.902344 0.0234375 L 3.871094 -0.046875 L 4.367188 0 L 5.074219 0 L 5.804688 -0.234375 L 5.96875 -0.683594 L 6.015625 -1.179688 L 5.921875 -1.675781 L 5.992188 -2.691406 L 5.945312 -4.152344 L 6.160156 -4.625 L 6.628906 -4.859375 L 7.054688 -4.859375 L 7.480469 -4.882812 L 8.070312 -4.695312 L 8.449219 -4.292969 L 9.0625 -3.46875 L 9.226562 -3.019531 L 9.886719 -1.839844 L 10.195312 -1.390625 L 10.40625 -0.992188 L 10.6875 -0.613281 L 11.160156 -0.1875 L 11.75 -0.046875 L 12.601562 0 L 13.121094 -0.046875 L 13.59375 0 L 14.535156 0 L 15.054688 -0.046875 L 15.550781 -0.164062 L 15.644531 -0.660156 L 15.339844 -1.25 L 14.582031 -2.40625 L 14.371094 -2.808594 L 14.085938 -3.234375 L 13.851562 -3.65625 L 13.542969 -4.035156 L 12.835938 -5.261719 L 12.765625 -5.828125 L 13.027344 -6.324219 L 13.6875 -6.960938 L 13.96875 -7.363281 L 14.132812 -7.8125 L 14.394531 -8.234375 L 14.558594 -8.636719 L 14.820312 -9.53125 L 14.84375 -11.398438 L 14.722656 -11.84375 L 14.652344 -12.292969 L 14.535156 -12.765625 L 13.898438 -14.0625 L 13.566406 -14.417969 L 13.355469 -14.773438 L 12.175781 -15.667969 L 11.351562 -16.09375 L 9.390625 -16.496094 L 8.800781 -16.542969 L 8.117188 -16.519531 L 7.597656 -16.542969 L 7.125 -16.496094 L 6.605469 -16.542969 L 6.207031 -16.496094 L 4.789062 -16.542969 L 4.34375 -16.472656 L 3.375 -16.566406 L 2.925781 -16.496094 L 2.40625 -16.519531 L 1.957031 -16.304688 L 1.769531 -15.808594 L 1.699219 -9.203125 L 1.769531 -8.519531 L 1.769531 -7.339844 L 1.722656 -6.84375 L 1.699219 -5.945312 L 1.769531 -5.425781 L 1.699219 -4.460938 L 1.792969 -3.089844 L 1.746094 -2.59375 Z M 6.628906 -8.683594 L 6.230469 -8.894531 L 5.992188 -9.390625 L 5.921875 -12.035156 L 6.207031 -12.507812 L 6.679688 -12.742188 L 7.054688 -12.765625 L 8.351562 -12.742188 L 9.4375 -12.601562 L 10.171875 -12.152344 L 10.40625 -11.796875 L 10.570312 -11.421875 L 10.617188 -10.738281 L 10.546875 -10.097656 L 10.359375 -9.628906 L 10.097656 -9.226562 L 9.816406 -8.941406 L 9.460938 -8.777344 L 7.621094 -8.613281 L 7.148438 -8.683594 Z M 6.628906 -8.683594 "/></g></g></g><g fill="#ffffff" fill-opacity="1"><g transform="translate(133.804693, 66.149734)"><g><path d="M 1.699219 -0.683594 L 2.003906 -0.234375 L 2.453125 0.0234375 L 7.785156 -0.0234375 L 8.210938 0.046875 L 9.652344 -0.0234375 L 11.089844 0.0703125 L 11.539062 0.0234375 L 12.035156 -0.210938 L 12.246094 -0.660156 L 12.292969 -1.109375 L 12.269531 -2.570312 L 12.316406 -3.019531 L 12.011719 -3.492188 L 11.304688 -3.726562 L 8.1875 -3.777344 L 7.738281 -3.703125 L 7.21875 -3.75 L 6.703125 -3.703125 L 6.207031 -3.988281 L 5.992188 -4.71875 L 6.015625 -5.875 L 6.230469 -6.371094 L 6.65625 -6.628906 L 7.574219 -6.628906 L 8.046875 -6.679688 L 9.296875 -6.605469 L 9.933594 -6.65625 L 10.429688 -6.605469 L 10.855469 -6.628906 L 11.328125 -6.890625 L 11.5625 -7.339844 L 11.609375 -9.203125 L 11.5625 -9.675781 L 11.351562 -10.125 L 10.949219 -10.382812 L 10.003906 -10.40625 L 9.53125 -10.359375 L 9.039062 -10.359375 L 8.496094 -10.40625 L 6.628906 -10.382812 L 6.230469 -10.640625 L 5.945312 -11.066406 L 5.898438 -11.796875 L 6.136719 -12.484375 L 6.867188 -12.695312 L 11.398438 -12.71875 L 11.894531 -12.976562 L 12.152344 -13.402344 L 12.105469 -14.371094 L 12.035156 -14.820312 L 12.058594 -15.339844 L 12.128906 -15.785156 L 11.894531 -16.257812 L 11.398438 -16.472656 L 9.507812 -16.496094 L 9.085938 -16.445312 L 8.613281 -16.519531 L 7.574219 -16.472656 L 7.101562 -16.519531 L 6.183594 -16.496094 L 5.757812 -16.542969 L 2.667969 -16.472656 L 1.980469 -16.304688 L 1.746094 -15.785156 L 1.792969 -14.84375 L 1.699219 -14.160156 L 1.792969 -12.953125 L 1.746094 -12.460938 L 1.792969 -12.035156 L 1.792969 -7.8125 L 1.722656 -7.316406 L 1.792969 -6.394531 L 1.746094 -5.449219 L 1.816406 -4.957031 L 1.769531 -4.4375 L 1.792969 -3.988281 L 1.722656 -3.5625 L 1.769531 -3.019531 L 1.769531 -2.546875 L 1.816406 -1.628906 L 1.792969 -1.15625 Z M 1.699219 -0.683594 "/></g></g></g><g fill="#ffffff" fill-opacity="1"><g transform="translate(31.420875, 98.231937)"><g><path d="M 1.792969 -0.847656 L 1.957031 -0.234375 L 2.40625 0 L 2.878906 0.046875 L 3.871094 -0.0234375 L 4.789062 0.0234375 L 5.6875 -0.0234375 L 6.136719 0.046875 L 6.65625 0 L 11.328125 0.0234375 L 11.773438 -0.210938 L 12.035156 -0.945312 L 12.011719 -2.855469 L 11.796875 -3.5625 L 11.375 -3.847656 L 10.878906 -3.800781 L 10.429688 -3.703125 L 9.933594 -3.777344 L 8.96875 -3.75 L 8.496094 -3.847656 L 8.070312 -3.777344 L 7.148438 -3.824219 L 6.65625 -3.777344 L 6.183594 -3.964844 L 5.992188 -4.4375 L 6.015625 -12.4375 L 5.96875 -13.003906 L 6.015625 -13.945312 L 5.945312 -15.289062 L 5.96875 -15.738281 L 5.734375 -16.257812 L 5.261719 -16.542969 L 4.34375 -16.542969 L 3.871094 -16.445312 L 2.925781 -16.542969 L 2.476562 -16.472656 L 1.980469 -16.28125 L 1.769531 -15.761719 L 1.769531 -12.460938 L 1.722656 -12.011719 L 1.769531 -11.539062 L 1.699219 -10.664062 L 1.722656 -10.148438 L 1.769531 -9.699219 Z M 1.792969 -0.847656 "/></g></g></g><g fill="#ffffff" fill-opacity="1"><g transform="translate(44.115005, 98.231937)"><g><path d="M 1.132812 -0.683594 L 1.367188 -0.1875 L 1.839844 -0.0234375 L 8.847656 0.0234375 L 9.296875 -0.210938 L 9.558594 -0.636719 L 9.558594 -1.15625 L 9.507812 -1.582031 L 9.582031 -3.019531 L 9.25 -3.421875 L 7.667969 -3.917969 L 7.410156 -4.390625 L 7.457031 -6.324219 L 7.363281 -7.269531 L 7.457031 -8.257812 L 7.410156 -8.96875 L 7.457031 -9.699219 L 7.410156 -10.148438 L 7.457031 -10.617188 L 7.410156 -11.113281 L 7.410156 -12.105469 L 7.667969 -12.53125 L 8.117188 -12.789062 L 8.636719 -12.8125 L 9.085938 -13.074219 L 9.34375 -13.519531 L 9.34375 -14.914062 L 9.390625 -15.339844 L 9.34375 -15.808594 L 9.15625 -16.28125 L 8.402344 -16.496094 L 5.402344 -16.519531 L 4.882812 -16.472656 L 3.445312 -16.496094 L 2.996094 -16.472656 L 2.078125 -16.519531 L 1.558594 -16.28125 L 1.296875 -15.785156 L 1.296875 -15.339844 L 1.25 -14.9375 L 1.25 -14.417969 L 1.296875 -13.945312 L 1.296875 -13.496094 L 1.535156 -13.050781 L 2.972656 -12.554688 L 3.28125 -12.128906 L 3.210938 -10.125 L 3.234375 -9.722656 L 3.304688 -9.179688 L 3.28125 -8.210938 L 3.234375 -7.738281 L 3.328125 -6.820312 L 3.210938 -6.347656 L 3.304688 -5.332031 L 3.257812 -4.414062 L 3.019531 -3.894531 L 1.464844 -3.398438 L 1.179688 -2.949219 L 1.132812 -2.5 Z M 1.132812 -0.683594 "/></g></g></g><g fill="#ffffff" fill-opacity="1"><g transform="translate(54.827158, 98.231937)"><g><path d="M 6.65625 -0.425781 L 7.03125 0 L 7.597656 0.210938 L 8.070312 0.257812 L 8.707031 -0.0234375 L 9.109375 -0.402344 L 9.25 -0.847656 L 9.652344 -1.769531 L 9.863281 -2.21875 L 10.097656 -2.621094 L 10.476562 -3.46875 L 10.617188 -3.894531 L 12.035156 -6.914062 L 12.316406 -7.835938 L 12.8125 -8.683594 L 13.074219 -9.582031 L 13.332031 -10.050781 L 13.449219 -10.453125 L 13.566406 -10.902344 L 13.898438 -11.328125 L 14.015625 -11.773438 L 14.324219 -12.128906 L 14.675781 -13.050781 L 14.796875 -13.472656 L 15.054688 -13.875 L 15.21875 -14.347656 L 15.457031 -14.796875 L 15.550781 -15.195312 L 15.785156 -15.761719 L 15.644531 -16.351562 L 15.242188 -16.496094 L 12.460938 -16.496094 L 11.917969 -16.304688 L 11.492188 -15.855469 L 11.375 -15.433594 L 8.566406 -8.519531 L 8.328125 -8.070312 L 8.210938 -7.644531 L 7.929688 -7.21875 L 7.644531 -7.171875 L 7.457031 -7.597656 L 7.148438 -8.496094 L 6.960938 -8.917969 L 6.820312 -9.390625 L 6.65625 -9.769531 L 6.394531 -10.195312 L 6.113281 -11.136719 L 5.898438 -11.515625 L 5.734375 -11.941406 L 5.640625 -12.410156 L 4.8125 -14.109375 L 4.742188 -14.558594 L 4.507812 -15.007812 L 4.34375 -15.433594 L 4.128906 -15.808594 L 3.726562 -16.28125 L 3.1875 -16.472656 L 1.863281 -16.542969 L 1.464844 -16.496094 L 1.039062 -16.542969 L 0.542969 -16.519531 L 0.046875 -16.304688 L 0 -15.785156 L 0.09375 -15.21875 L 0.308594 -14.796875 L 0.660156 -13.898438 L 0.875 -13.472656 L 1.015625 -13.050781 L 1.273438 -12.601562 L 1.652344 -11.679688 L 1.886719 -11.253906 L 2.59375 -9.53125 L 2.832031 -9.15625 L 4.390625 -5.640625 L 4.507812 -5.238281 L 4.90625 -4.390625 L 5.050781 -3.941406 L 5.664062 -2.570312 L 5.898438 -2.21875 L 6.015625 -1.722656 Z M 6.65625 -0.425781 "/></g></g></g><g fill="#ffffff" fill-opacity="1"><g transform="translate(70.730211, 98.231937)"><g><path d="M 1.132812 -0.683594 L 1.367188 -0.1875 L 1.839844 -0.0234375 L 8.847656 0.0234375 L 9.296875 -0.210938 L 9.558594 -0.636719 L 9.558594 -1.15625 L 9.507812 -1.582031 L 9.582031 -3.019531 L 9.25 -3.421875 L 7.667969 -3.917969 L 7.410156 -4.390625 L 7.457031 -6.324219 L 7.363281 -7.269531 L 7.457031 -8.257812 L 7.410156 -8.96875 L 7.457031 -9.699219 L 7.410156 -10.148438 L 7.457031 -10.617188 L 7.410156 -11.113281 L 7.410156 -12.105469 L 7.667969 -12.53125 L 8.117188 -12.789062 L 8.636719 -12.8125 L 9.085938 -13.074219 L 9.34375 -13.519531 L 9.34375 -14.914062 L 9.390625 -15.339844 L 9.34375 -15.808594 L 9.15625 -16.28125 L 8.402344 -16.496094 L 5.402344 -16.519531 L 4.882812 -16.472656 L 3.445312 -16.496094 L 2.996094 -16.472656 L 2.078125 -16.519531 L 1.558594 -16.28125 L 1.296875 -15.785156 L 1.296875 -15.339844 L 1.25 -14.9375 L 1.25 -14.417969 L 1.296875 -13.945312 L 1.296875 -13.496094 L 1.535156 -13.050781 L 2.972656 -12.554688 L 3.28125 -12.128906 L 3.210938 -10.125 L 3.234375 -9.722656 L 3.304688 -9.179688 L 3.28125 -8.210938 L 3.234375 -7.738281 L 3.328125 -6.820312 L 3.210938 -6.347656 L 3.304688 -5.332031 L 3.257812 -4.414062 L 3.019531 -3.894531 L 1.464844 -3.398438 L 1.179688 -2.949219 L 1.132812 -2.5 Z M 1.132812 -0.683594 "/></g></g></g><g fill="#ffffff" fill-opacity="1"><g transform="translate(81.442363, 98.231937)"><g><path d="M 13.921875 -0.378906 L 14.605469 -0.0703125 L 15.21875 0.117188 L 15.761719 -0.140625 L 15.976562 -0.636719 L 16.09375 -7.054688 L 16 -7.714844 L 16.046875 -8.234375 L 15.953125 -11.066406 L 16.023438 -12.011719 L 15.976562 -12.460938 L 15.976562 -13.402344 L 16.070312 -13.875 L 16.023438 -14.582031 L 16.070312 -15.808594 L 15.785156 -16.234375 L 15.265625 -16.472656 L 14.796875 -16.519531 L 14.347656 -16.519531 L 13.828125 -16.472656 L 13.332031 -16.542969 L 12.90625 -16.496094 L 12.4375 -16.519531 L 11.871094 -16.28125 L 11.632812 -15.785156 L 11.609375 -11.492188 L 11.703125 -10.996094 L 11.703125 -10.546875 L 11.609375 -10.050781 L 11.632812 -9.109375 L 11.515625 -8.730469 L 11.183594 -8.824219 L 10.148438 -9.886719 L 9.792969 -10.171875 L 8.96875 -11.019531 L 8.589844 -11.304688 L 8.328125 -11.632812 L 7.835938 -12.152344 L 7.101562 -12.765625 L 6.84375 -13.121094 L 6.394531 -13.425781 L 6.160156 -13.78125 L 5.757812 -14.0625 L 5.449219 -14.464844 L 4.175781 -15.761719 L 3.234375 -16.398438 L 2.59375 -16.589844 L 2.03125 -16.304688 L 1.722656 -15.855469 L 1.769531 -12.554688 L 1.722656 -12.082031 L 1.792969 -11.113281 L 1.746094 -10.6875 L 1.769531 -10.195312 L 1.699219 -9.699219 L 1.792969 -6.324219 L 1.746094 -5.898438 L 1.746094 -5.449219 L 1.699219 -4.933594 L 1.699219 -4.484375 L 1.769531 -3.988281 L 1.746094 -3.019531 L 1.792969 -2.546875 L 1.722656 -1.652344 L 1.792969 -1.179688 L 1.792969 -0.730469 L 2.003906 -0.210938 L 2.453125 0.046875 L 3.257812 0 L 4.4375 0.0703125 L 4.933594 0 L 5.472656 0.046875 L 5.945312 -0.1875 L 6.160156 -0.660156 L 6.089844 -1.132812 L 6.160156 -6.914062 L 6.0625 -7.410156 L 6.300781 -7.691406 L 6.605469 -7.621094 L 9.980469 -4.316406 L 10.359375 -4.011719 L 12.648438 -1.722656 L 12.953125 -1.34375 L 13.332031 -1.039062 L 13.617188 -0.683594 Z M 13.921875 -0.378906 "/></g></g></g><g fill="#ffffff" fill-opacity="1"><g transform="translate(99.233015, 98.231937)"><g><path d="M 8.636719 0.28125 L 9.25 0.308594 L 10.523438 0.1875 L 10.996094 0.09375 L 11.445312 0.0703125 L 11.84375 -0.046875 L 13.59375 -0.800781 L 13.921875 -1.085938 L 14.699219 -1.582031 L 15.386719 -2.3125 L 16.140625 -3.421875 L 16.683594 -4.507812 L 16.988281 -5.523438 L 17.011719 -5.96875 L 17.15625 -6.441406 L 17.25 -8.234375 L 17.179688 -8.707031 L 16.894531 -9.179688 L 16.210938 -9.390625 L 10.289062 -9.390625 L 9.558594 -9.132812 L 9.34375 -8.683594 L 9.296875 -6.914062 L 9.390625 -6.464844 L 9.53125 -6.0625 L 9.980469 -5.851562 L 10.429688 -5.851562 L 10.855469 -5.804688 L 12.269531 -5.875 L 12.601562 -5.617188 L 12.695312 -5.214844 L 12.507812 -4.835938 L 11.820312 -4.175781 L 11.445312 -3.988281 L 10.546875 -3.703125 L 10.074219 -3.632812 L 9.390625 -3.609375 L 8.660156 -3.65625 L 8.234375 -3.75 L 7.8125 -3.917969 L 6.960938 -4.367188 L 6.253906 -4.933594 L 5.992188 -5.332031 L 5.804688 -5.734375 L 5.546875 -6.160156 L 5.378906 -6.605469 L 5.238281 -8.96875 L 5.5 -9.816406 L 5.59375 -10.289062 L 5.945312 -11.160156 L 6.558594 -11.820312 L 7.339844 -12.363281 L 7.738281 -12.554688 L 8.660156 -12.859375 L 9.320312 -12.882812 L 10.546875 -12.742188 L 10.996094 -12.625 L 12.175781 -11.894531 L 12.410156 -11.515625 L 12.929688 -11.136719 L 13.449219 -10.902344 L 15.761719 -10.902344 L 16.210938 -10.949219 L 16.613281 -11.089844 L 16.777344 -11.609375 L 16.023438 -13.355469 L 15.691406 -13.6875 L 15.101562 -14.441406 L 14.417969 -15.125 L 12.8125 -16.117188 L 12.292969 -16.257812 L 11.917969 -16.421875 L 11.445312 -16.496094 L 10.925781 -16.636719 L 8.589844 -16.753906 L 7.148438 -16.519531 L 5.355469 -15.878906 L 4.933594 -15.667969 L 3.75 -14.867188 L 3.042969 -14.207031 L 2.738281 -13.804688 L 2.5 -13.425781 L 2.148438 -13.097656 L 1.886719 -12.648438 L 1.15625 -10.855469 L 1.132812 -10.429688 L 0.875 -9.390625 L 0.921875 -8.210938 L 0.875 -7.550781 L 0.898438 -7.054688 L 1.296875 -5.238281 L 1.792969 -3.941406 L 2.054688 -3.492188 L 2.902344 -2.429688 L 3.5625 -1.746094 L 5.074219 -0.730469 L 5.5 -0.519531 L 6.820312 -0.046875 L 8.140625 0.234375 Z M 8.636719 0.28125 "/></g></g></g><path stroke-linecap="butt" transform="matrix(0.751221, 0, 0, 0.75, 9.600881, 37.08921)" fill="none" stroke-linejoin="miter" d="M 0.000906537 2.000845 L 172.724859 2.000845 " stroke="#ffffff" stroke-width="4" stroke-opacity="1" stroke-miterlimit="4"/><path stroke-linecap="butt" transform="matrix(0.751221, 0, 0, 0.75, 9.600881, 113.819496)" fill="none" stroke-linejoin="miter" d="M 0.000906537 2.001089 L 172.724859 2.001089 " stroke="#ffffff" stroke-width="4" stroke-opacity="1" stroke-miterlimit="4"/></svg>