<svg xmlns="http://www.w3.org/2000/svg" xmlns:xlink="http://www.w3.org/1999/xlink" width="1500" zoomAndPan="magnify" viewBox="0 0 1125 540.000001" height="720" preserveAspectRatio="xMidYMid meet" version="1.0"><defs><g/></defs><g fill="#000000" fill-opacity="1"><g transform="translate(-6.577581, 179.649284)"><g><path d="M 118.570312 -3.417969 L 123.996094 -0.199219 L 129.621094 0.402344 L 134.042969 -1.003906 L 136.054688 -5.023438 L 136.457031 -78.375 L 135.851562 -81.792969 L 135.851562 -101.6875 L 136.457031 -106.511719 L 135.851562 -134.445312 L 133.84375 -138.464844 L 129.824219 -140.675781 L 104.902344 -140.476562 L 101.085938 -138.265625 L 98.875 -134.042969 L 98.675781 -129.824219 L 99.277344 -126.609375 L 98.675781 -118.167969 L 99.074219 -113.746094 L 98.675781 -77.773438 L 97.46875 -74.355469 L 94.453125 -75.765625 L 80.183594 -90.03125 L 74.558594 -94.453125 L 34.96875 -134.445312 L 31.953125 -136.855469 L 27.332031 -139.269531 L 21.300781 -140.675781 L 16.679688 -138.667969 L 14.871094 -134.847656 L 14.871094 -73.957031 L 14.671875 -70.539062 L 15.074219 -62.300781 L 14.46875 -58.882812 L 14.871094 -25.925781 L 14.46875 -22.105469 L 14.871094 -5.226562 L 16.679688 -1.40625 L 20.902344 0 L 29.140625 0.402344 L 33.5625 0 L 41.398438 0.601562 L 45.617188 0.402344 L 49.636719 -1.609375 L 51.648438 -7.835938 L 51.847656 -58.683594 L 52.25 -62.703125 L 53.65625 -66.117188 L 56.269531 -65.113281 L 58.882812 -61.695312 L 73.152344 -48.03125 L 75.765625 -45.015625 L 79.179688 -42.804688 L 110.328125 -11.855469 L 115.554688 -6.027344 Z M 118.570312 -3.417969 "/></g></g></g><g fill="#000000" fill-opacity="1"><g transform="translate(131.284391, 179.649284)"><g><path d="M 14.46875 -5.828125 L 17.082031 -2.007812 L 20.902344 0.199219 L 66.320312 -0.199219 L 69.9375 0.402344 L 82.195312 -0.199219 L 94.453125 0.601562 L 98.273438 0.199219 L 102.492188 -1.808594 L 104.300781 -5.628906 L 104.703125 -9.445312 L 104.503906 -21.90625 L 104.902344 -25.722656 L 102.292969 -29.742188 L 96.261719 -31.753906 L 69.734375 -32.15625 L 65.917969 -31.550781 L 61.496094 -31.953125 L 57.074219 -31.550781 L 52.855469 -33.964844 L 51.046875 -40.191406 L 51.246094 -50.039062 L 53.054688 -54.261719 L 56.671875 -56.472656 L 64.511719 -56.472656 L 68.527344 -56.875 L 79.179688 -56.269531 L 84.605469 -56.671875 L 88.828125 -56.269531 L 92.445312 -56.472656 L 96.464844 -58.683594 L 98.472656 -62.5 L 98.875 -78.375 L 98.472656 -82.394531 L 96.664062 -86.214844 L 93.246094 -88.425781 L 85.210938 -88.625 L 81.191406 -88.222656 L 76.96875 -88.222656 L 72.347656 -88.625 L 56.472656 -88.425781 L 53.054688 -90.636719 L 50.644531 -94.253906 L 50.242188 -100.484375 L 52.25 -106.3125 L 58.480469 -108.121094 L 97.066406 -108.320312 L 101.285156 -110.53125 L 103.496094 -114.148438 L 103.09375 -122.386719 L 102.492188 -126.207031 L 102.691406 -130.628906 L 103.296875 -134.445312 L 101.285156 -138.464844 L 97.066406 -140.273438 L 80.988281 -140.476562 L 77.371094 -140.074219 L 73.351562 -140.675781 L 64.511719 -140.273438 L 60.492188 -140.675781 L 52.652344 -140.476562 L 49.035156 -140.875 L 22.710938 -140.273438 L 16.882812 -138.867188 L 14.871094 -134.445312 L 15.273438 -126.40625 L 14.46875 -120.578125 L 15.273438 -110.328125 L 14.871094 -106.109375 L 15.273438 -102.492188 L 15.273438 -66.519531 L 14.671875 -62.300781 L 15.273438 -54.460938 L 14.871094 -46.421875 L 15.472656 -42.203125 L 15.074219 -37.78125 L 15.273438 -33.964844 L 14.671875 -30.347656 L 15.074219 -25.722656 L 15.074219 -21.703125 L 15.472656 -13.867188 L 15.273438 -9.847656 Z M 14.46875 -5.828125 "/></g></g></g><g fill="#000000" fill-opacity="1"><g transform="translate(232.771687, 179.649284)"><g><path d="M 2.613281 -5.425781 L 3.617188 -1.207031 L 7.636719 -0.199219 L 25.320312 -0.199219 L 30.546875 0.402344 L 35.167969 -1.609375 L 38.785156 -5.226562 L 42.203125 -12.058594 L 45.617188 -15.875 L 50.441406 -17.886719 L 54.460938 -17.484375 L 65.714844 -17.683594 L 69.9375 -17.082031 L 74.558594 -17.683594 L 78.175781 -17.683594 L 82.394531 -17.28125 L 91.839844 -17.683594 L 98.472656 -15.472656 L 102.691406 -12.257812 L 103.699219 -8.640625 L 105.910156 -5.023438 L 109.324219 -1.808594 L 114.550781 0.199219 L 118.167969 -0.199219 L 125.203125 0.402344 L 137.660156 0 L 141.277344 -1.207031 L 142.082031 -5.425781 L 140.875 -10.449219 L 139.46875 -14.066406 L 136.855469 -17.484375 L 135.652344 -21.503906 L 133.640625 -24.519531 L 132.4375 -28.335938 L 129.019531 -35.570312 L 127.613281 -39.390625 L 125.601562 -42.804688 L 122.789062 -50.242188 L 120.578125 -53.457031 L 118.972656 -57.476562 L 117.164062 -60.890625 L 115.757812 -64.910156 L 113.949219 -67.925781 L 112.742188 -71.945312 L 110.53125 -75.5625 L 108.921875 -78.980469 L 106.914062 -82.394531 L 105.910156 -86.214844 L 101.890625 -93.246094 L 100.683594 -97.066406 L 97.066406 -104.703125 L 96.0625 -107.917969 L 93.046875 -114.953125 L 89.027344 -122.386719 L 85.8125 -130.023438 L 84.003906 -133.039062 L 82.796875 -136.855469 L 79.179688 -140.675781 L 72.347656 -142.484375 L 65.917969 -140.476562 L 62.097656 -136.855469 L 60.890625 -133.238281 L 52.25 -115.152344 L 50.039062 -111.535156 L 38.785156 -86.214844 L 37.78125 -82.796875 L 35.570312 -79.179688 L 32.355469 -71.945312 L 29.339844 -66.71875 L 27.933594 -62.902344 L 25.121094 -57.675781 L 23.914062 -53.457031 L 22.105469 -50.242188 L 20.699219 -46.222656 L 15.074219 -35.773438 L 9.246094 -21.101562 L 6.832031 -17.886719 L 5.023438 -13.867188 Z M 64.710938 -49.636719 L 60.890625 -51.246094 L 60.289062 -55.265625 L 68.328125 -73.554688 L 70.136719 -76.769531 L 72.75 -78.777344 L 75.160156 -77.171875 L 77.773438 -69.332031 L 79.984375 -65.917969 L 80.789062 -62.703125 L 82.796875 -58.683594 L 84.203125 -55.066406 L 83.800781 -51.445312 L 80.386719 -49.839844 Z M 64.710938 -49.636719 "/></g></g></g><g fill="#000000" fill-opacity="1"><g transform="translate(365.006652, 179.649284)"><g><path d="M 15.472656 -6.429688 L 16.882812 -2.007812 L 20.902344 0 L 24.71875 0.199219 L 32.957031 -0.402344 L 37.179688 0 L 43.207031 0 L 49.4375 -2.007812 L 50.84375 -5.828125 L 51.246094 -10.046875 L 50.441406 -14.269531 L 51.046875 -22.910156 L 50.644531 -35.371094 L 52.453125 -39.390625 L 56.472656 -41.398438 L 60.089844 -41.398438 L 63.707031 -41.601562 L 68.730469 -39.992188 L 71.945312 -36.574219 L 77.171875 -29.542969 L 78.578125 -25.722656 L 84.203125 -15.675781 L 86.816406 -11.855469 L 88.625 -8.441406 L 91.039062 -5.226562 L 95.054688 -1.609375 L 100.082031 -0.402344 L 107.316406 0 L 111.738281 -0.402344 L 115.757812 0 L 123.792969 0 L 128.214844 -0.402344 L 132.4375 -1.40625 L 133.238281 -5.628906 L 130.628906 -10.652344 L 124.195312 -20.5 L 122.386719 -23.914062 L 119.976562 -27.53125 L 117.964844 -31.148438 L 115.355469 -34.363281 L 109.324219 -44.816406 L 108.722656 -49.636719 L 110.933594 -53.859375 L 116.558594 -59.285156 L 118.972656 -62.703125 L 120.378906 -66.519531 L 122.589844 -70.136719 L 123.996094 -73.554688 L 126.207031 -81.191406 L 126.40625 -97.066406 L 125.402344 -100.882812 L 124.800781 -104.703125 L 123.792969 -108.722656 L 118.367188 -119.773438 L 115.554688 -122.789062 L 113.746094 -125.804688 L 103.699219 -133.441406 L 96.664062 -137.058594 L 79.984375 -140.476562 L 74.960938 -140.875 L 69.132812 -140.675781 L 64.710938 -140.875 L 60.691406 -140.476562 L 56.269531 -140.875 L 52.855469 -140.476562 L 40.796875 -140.875 L 36.976562 -140.273438 L 28.738281 -141.078125 L 24.917969 -140.476562 L 20.5 -140.675781 L 16.679688 -138.867188 L 15.074219 -134.648438 L 14.46875 -78.375 L 15.074219 -72.546875 L 15.074219 -62.5 L 14.671875 -58.28125 L 14.46875 -50.644531 L 15.074219 -46.222656 L 14.46875 -37.984375 L 15.273438 -26.328125 L 14.871094 -22.105469 Z M 56.472656 -73.957031 L 53.054688 -75.765625 L 51.046875 -79.984375 L 50.441406 -102.492188 L 52.855469 -106.511719 L 56.875 -108.519531 L 60.089844 -108.722656 L 71.140625 -108.519531 L 80.386719 -107.316406 L 86.617188 -103.496094 L 88.625 -100.484375 L 90.03125 -97.265625 L 90.433594 -91.4375 L 89.832031 -86.011719 L 88.222656 -81.992188 L 86.011719 -78.578125 L 83.601562 -76.164062 L 80.585938 -74.757812 L 64.910156 -73.351562 L 60.890625 -73.957031 Z M 56.472656 -73.957031 "/></g></g></g><g fill="#000000" fill-opacity="1"><g transform="translate(490.609754, 179.649284)"><g><path d="M 54.058594 1.808594 L 69.9375 2.210938 L 73.957031 1.808594 L 77.972656 0.804688 L 81.992188 0.199219 L 86.011719 -1.40625 L 89.628906 -1.808594 L 93.449219 -3.617188 L 107.113281 -11.855469 L 112.941406 -17.886719 L 114.953125 -20.699219 L 117.164062 -25.121094 L 118.367188 -28.738281 L 119.574219 -32.15625 L 120.78125 -42.203125 L 120.378906 -48.632812 L 117.363281 -60.289062 L 115.152344 -63.503906 L 109.929688 -69.535156 L 106.3125 -72.75 L 103.09375 -74.355469 L 99.476562 -76.566406 L 83.800781 -81.390625 L 79.785156 -81.992188 L 75.765625 -82.195312 L 71.542969 -83 L 65.714844 -83 L 55.066406 -85.210938 L 47.628906 -88.828125 L 44.613281 -91.640625 L 43.808594 -97.667969 L 44.816406 -103.09375 L 47.226562 -105.707031 L 50.242188 -107.917969 L 53.457031 -109.726562 L 57.074219 -110.53125 L 63.503906 -110.730469 L 69.9375 -109.929688 L 73.554688 -108.921875 L 77.171875 -106.511719 L 80.585938 -103.699219 L 83.601562 -99.679688 L 88.023438 -97.066406 L 97.46875 -97.871094 L 102.894531 -97.46875 L 106.914062 -97.46875 L 110.53125 -97.066406 L 114.347656 -99.878906 L 115.957031 -103.296875 L 115.152344 -107.113281 L 114.75 -110.933594 L 109.125 -121.382812 L 104.703125 -127.410156 L 91.4375 -136.65625 L 80.183594 -140.476562 L 72.347656 -142.082031 L 56.875 -142.484375 L 52.453125 -141.277344 L 48.433594 -141.078125 L 44.816406 -140.476562 L 37.179688 -138.0625 L 30.347656 -134.042969 L 20.699219 -127.410156 L 13.664062 -117.964844 L 10.046875 -106.914062 L 9.445312 -97.066406 L 9.644531 -90.835938 L 11.054688 -82.796875 L 14.269531 -75.765625 L 21.703125 -66.519531 L 35.371094 -59.082031 L 42.605469 -56.671875 L 74.15625 -53.054688 L 81.390625 -49.636719 L 84.003906 -47.226562 L 85.210938 -42.203125 L 83.601562 -37.179688 L 80.988281 -34.164062 L 74.15625 -31.148438 L 67.925781 -30.746094 L 64.308594 -30.144531 L 54.058594 -31.148438 L 50.644531 -32.957031 L 47.226562 -35.167969 L 40.59375 -42.402344 L 36.574219 -44.011719 L 32.957031 -43.609375 L 29.140625 -44.210938 L 13.664062 -43.410156 L 10.046875 -41.800781 L 8.441406 -37.582031 L 9.042969 -33.5625 L 9.847656 -29.542969 L 11.054688 -25.925781 L 14.871094 -18.488281 L 17.683594 -15.875 L 20.296875 -12.863281 L 27.332031 -8.441406 L 30.144531 -5.425781 L 33.964844 -3.617188 L 37.984375 -2.410156 L 45.820312 0.402344 Z M 54.058594 1.808594 "/></g></g></g><g fill="#000000" fill-opacity="1"><g transform="translate(605.15975, 179.649284)"><g><path d="M 15.273438 -5.628906 L 16.882812 -1.40625 L 21.503906 0.402344 L 25.320312 0.402344 L 31.550781 -0.199219 L 37.378906 0 L 41.601562 0.601562 L 45.820312 0.199219 L 50.242188 -1.609375 L 51.847656 -5.628906 L 52.050781 -9.644531 L 51.445312 -14.066406 L 51.847656 -17.683594 L 51.445312 -21.703125 L 51.847656 -25.523438 L 51.648438 -29.945312 L 52.050781 -34.164062 L 51.445312 -50.039062 L 53.457031 -54.261719 L 57.476562 -56.671875 L 61.695312 -56.671875 L 65.3125 -56.269531 L 77.171875 -56.269531 L 81.191406 -56.671875 L 85.210938 -56.269531 L 89.027344 -56.269531 L 92.644531 -54.261719 L 94.65625 -50.242188 L 95.257812 -37.984375 L 94.65625 -34.164062 L 95.457031 -19.894531 L 94.65625 -13.867188 L 95.257812 -6.027344 L 97.265625 -1.808594 L 101.285156 0.199219 L 105.304688 -0.199219 L 111.335938 0.402344 L 125.203125 0.402344 L 129.222656 -1.808594 L 131.429688 -5.628906 L 132.234375 -13.867188 L 132.234375 -46.222656 L 131.429688 -53.859375 L 131.632812 -57.878906 L 131.230469 -62.097656 L 131.230469 -66.117188 L 131.832031 -70.335938 L 131.632812 -77.972656 L 132.035156 -82.394531 L 131.429688 -102.089844 L 132.4375 -118.769531 L 131.632812 -122.589844 L 131.230469 -126.40625 L 132.035156 -130.425781 L 131.632812 -134.445312 L 129.621094 -138.464844 L 123.394531 -140.476562 L 113.144531 -140.675781 L 106.710938 -140.074219 L 102.691406 -140.074219 L 96.664062 -138.265625 L 95.054688 -132.4375 L 95.457031 -110.53125 L 94.65625 -107.113281 L 94.65625 -95.457031 L 92.445312 -91.4375 L 89.027344 -89.429688 L 80.988281 -89.429688 L 77.371094 -89.832031 L 57.878906 -89.628906 L 53.65625 -91.4375 L 52.050781 -95.257812 L 52.050781 -107.316406 L 52.453125 -110.933594 L 51.847656 -130.828125 L 52.050781 -134.246094 L 49.636719 -138.464844 L 43.410156 -140.476562 L 31.550781 -140.074219 L 27.53125 -140.476562 L 23.714844 -140.074219 L 17.484375 -138.265625 L 15.273438 -134.847656 L 14.671875 -130.425781 L 14.671875 -126.609375 L 15.074219 -122.1875 L 14.46875 -118.367188 L 15.472656 -106.3125 L 14.871094 -101.890625 L 15.273438 -98.472656 L 14.46875 -94.453125 L 15.273438 -82.195312 L 14.871094 -77.972656 L 14.871094 -66.320312 L 15.472656 -62.5 L 15.074219 -56.269531 L 15.472656 -51.648438 L 14.871094 -42.203125 L 15.273438 -37.78125 L 14.671875 -33.761719 L 15.273438 -30.144531 L 14.871094 -26.125 Z M 15.273438 -5.628906 "/></g></g></g><g fill="#000000" fill-opacity="1"><g transform="translate(738.6005, 179.649284)"><g><path d="M 75.160156 2.410156 L 86.414062 2.210938 L 98.472656 0.601562 L 113.546875 -4.421875 L 120.175781 -8.039062 L 123.191406 -10.449219 L 127.011719 -12.257812 L 132.636719 -17.082031 L 135.25 -20.699219 L 138.0625 -23.511719 L 146.90625 -36.976562 L 149.921875 -44.613281 L 151.527344 -52.25 L 151.730469 -55.867188 L 152.734375 -59.886719 L 152.933594 -64.109375 L 153.738281 -69.9375 L 153.136719 -79.984375 L 151.730469 -88.222656 L 146.703125 -103.296875 L 142.886719 -110.730469 L 138.464844 -116.761719 L 132.839844 -122.992188 L 127.011719 -128.015625 L 122.386719 -131.230469 L 116.359375 -133.84375 L 113.34375 -136.054688 L 97.871094 -140.875 L 86.214844 -142.886719 L 80.789062 -143.085938 L 59.484375 -140.074219 L 44.414062 -134.445312 L 41.398438 -132.234375 L 37.78125 -130.425781 L 30.949219 -125.402344 L 21.101562 -113.949219 L 14.871094 -103.296875 L 11.855469 -95.660156 L 8.441406 -80.183594 L 7.835938 -63.90625 L 8.441406 -59.6875 L 9.445312 -56.070312 L 9.847656 -52.25 L 11.65625 -44.613281 L 20.902344 -26.328125 L 23.3125 -23.914062 L 25.925781 -20.699219 L 28.9375 -17.886719 L 31.148438 -15.273438 L 37.78125 -10.046875 L 53.457031 -2.007812 L 59.285156 0 L 63.707031 0.402344 L 70.941406 2.007812 Z M 86.414062 -33.160156 L 75.363281 -33.160156 L 70.941406 -33.761719 L 63.707031 -36.777344 L 60.492188 -38.585938 L 55.066406 -43.007812 L 52.453125 -45.820312 L 49.636719 -49.636719 L 48.632812 -52.855469 L 46.824219 -56.472656 L 45.21875 -63.90625 L 45.21875 -76.164062 L 46.222656 -79.785156 L 46.824219 -83.601562 L 48.433594 -87.21875 L 49.636719 -90.835938 L 54.460938 -97.265625 L 64.511719 -104.101562 L 67.121094 -105.105469 L 74.960938 -107.113281 L 80.585938 -107.515625 L 90.234375 -106.3125 L 93.851562 -105.507812 L 97.46875 -103.898438 L 103.699219 -99.476562 L 111.535156 -91.238281 L 113.949219 -83.601562 L 115.757812 -79.785156 L 116.359375 -76.164062 L 115.957031 -63.90625 L 114.347656 -56.472656 L 112.941406 -52.855469 L 110.730469 -49.238281 L 109.527344 -46.222656 L 106.710938 -43.007812 L 97.066406 -36.375 L 93.449219 -35.371094 L 90.433594 -33.964844 Z M 86.414062 -33.160156 "/></g></g></g><g fill="#000000" fill-opacity="1"><g transform="translate(886.108733, 179.649284)"><g><path d="M 15.472656 -6.429688 L 16.882812 -2.007812 L 20.902344 0 L 24.71875 0.199219 L 32.957031 -0.402344 L 37.179688 0 L 43.207031 0 L 49.4375 -2.007812 L 50.84375 -5.828125 L 51.246094 -10.046875 L 50.441406 -14.269531 L 51.046875 -22.910156 L 50.644531 -35.371094 L 52.453125 -39.390625 L 56.472656 -41.398438 L 60.089844 -41.398438 L 63.707031 -41.601562 L 68.730469 -39.992188 L 71.945312 -36.574219 L 77.171875 -29.542969 L 78.578125 -25.722656 L 84.203125 -15.675781 L 86.816406 -11.855469 L 88.625 -8.441406 L 91.039062 -5.226562 L 95.054688 -1.609375 L 100.082031 -0.402344 L 107.316406 0 L 111.738281 -0.402344 L 115.757812 0 L 123.792969 0 L 128.214844 -0.402344 L 132.4375 -1.40625 L 133.238281 -5.628906 L 130.628906 -10.652344 L 124.195312 -20.5 L 122.386719 -23.914062 L 119.976562 -27.53125 L 117.964844 -31.148438 L 115.355469 -34.363281 L 109.324219 -44.816406 L 108.722656 -49.636719 L 110.933594 -53.859375 L 116.558594 -59.285156 L 118.972656 -62.703125 L 120.378906 -66.519531 L 122.589844 -70.136719 L 123.996094 -73.554688 L 126.207031 -81.191406 L 126.40625 -97.066406 L 125.402344 -100.882812 L 124.800781 -104.703125 L 123.792969 -108.722656 L 118.367188 -119.773438 L 115.554688 -122.789062 L 113.746094 -125.804688 L 103.699219 -133.441406 L 96.664062 -137.058594 L 79.984375 -140.476562 L 74.960938 -140.875 L 69.132812 -140.675781 L 64.710938 -140.875 L 60.691406 -140.476562 L 56.269531 -140.875 L 52.855469 -140.476562 L 40.796875 -140.875 L 36.976562 -140.273438 L 28.738281 -141.078125 L 24.917969 -140.476562 L 20.5 -140.675781 L 16.679688 -138.867188 L 15.074219 -134.648438 L 14.46875 -78.375 L 15.074219 -72.546875 L 15.074219 -62.5 L 14.671875 -58.28125 L 14.46875 -50.644531 L 15.074219 -46.222656 L 14.46875 -37.984375 L 15.273438 -26.328125 L 14.871094 -22.105469 Z M 56.472656 -73.957031 L 53.054688 -75.765625 L 51.046875 -79.984375 L 50.441406 -102.492188 L 52.855469 -106.511719 L 56.875 -108.519531 L 60.089844 -108.722656 L 71.140625 -108.519531 L 80.386719 -107.316406 L 86.617188 -103.496094 L 88.625 -100.484375 L 90.03125 -97.265625 L 90.433594 -91.4375 L 89.832031 -86.011719 L 88.222656 -81.992188 L 86.011719 -78.578125 L 83.601562 -76.164062 L 80.585938 -74.757812 L 64.910156 -73.351562 L 60.890625 -73.957031 Z M 56.472656 -73.957031 "/></g></g></g><g fill="#000000" fill-opacity="1"><g transform="translate(1011.711887, 179.649284)"><g><path d="M 14.46875 -5.828125 L 17.082031 -2.007812 L 20.902344 0.199219 L 66.320312 -0.199219 L 69.9375 0.402344 L 82.195312 -0.199219 L 94.453125 0.601562 L 98.273438 0.199219 L 102.492188 -1.808594 L 104.300781 -5.628906 L 104.703125 -9.445312 L 104.503906 -21.90625 L 104.902344 -25.722656 L 102.292969 -29.742188 L 96.261719 -31.753906 L 69.734375 -32.15625 L 65.917969 -31.550781 L 61.496094 -31.953125 L 57.074219 -31.550781 L 52.855469 -33.964844 L 51.046875 -40.191406 L 51.246094 -50.039062 L 53.054688 -54.261719 L 56.671875 -56.472656 L 64.511719 -56.472656 L 68.527344 -56.875 L 79.179688 -56.269531 L 84.605469 -56.671875 L 88.828125 -56.269531 L 92.445312 -56.472656 L 96.464844 -58.683594 L 98.472656 -62.5 L 98.875 -78.375 L 98.472656 -82.394531 L 96.664062 -86.214844 L 93.246094 -88.425781 L 85.210938 -88.625 L 81.191406 -88.222656 L 76.96875 -88.222656 L 72.347656 -88.625 L 56.472656 -88.425781 L 53.054688 -90.636719 L 50.644531 -94.253906 L 50.242188 -100.484375 L 52.25 -106.3125 L 58.480469 -108.121094 L 97.066406 -108.320312 L 101.285156 -110.53125 L 103.496094 -114.148438 L 103.09375 -122.386719 L 102.492188 -126.207031 L 102.691406 -130.628906 L 103.296875 -134.445312 L 101.285156 -138.464844 L 97.066406 -140.273438 L 80.988281 -140.476562 L 77.371094 -140.074219 L 73.351562 -140.675781 L 64.511719 -140.273438 L 60.492188 -140.675781 L 52.652344 -140.476562 L 49.035156 -140.875 L 22.710938 -140.273438 L 16.882812 -138.867188 L 14.871094 -134.445312 L 15.273438 -126.40625 L 14.46875 -120.578125 L 15.273438 -110.328125 L 14.871094 -106.109375 L 15.273438 -102.492188 L 15.273438 -66.519531 L 14.671875 -62.300781 L 15.273438 -54.460938 L 14.871094 -46.421875 L 15.472656 -42.203125 L 15.074219 -37.78125 L 15.273438 -33.964844 L 14.671875 -30.347656 L 15.074219 -25.722656 L 15.074219 -21.703125 L 15.472656 -13.867188 L 15.273438 -9.847656 Z M 14.46875 -5.828125 "/></g></g></g><g fill="#000000" fill-opacity="1"><g transform="translate(-6.577581, 360.065173)"><g><path d="M 15.273438 -7.234375 L 16.679688 -2.007812 L 20.5 0 L 24.519531 0.402344 L 32.957031 -0.199219 L 40.796875 0.199219 L 48.433594 -0.199219 L 52.25 0.402344 L 56.671875 0 L 96.464844 0.199219 L 100.28125 -1.808594 L 102.492188 -8.039062 L 102.292969 -24.316406 L 100.484375 -30.347656 L 96.867188 -32.757812 L 92.644531 -32.355469 L 88.828125 -31.550781 L 84.605469 -32.15625 L 76.367188 -31.953125 L 72.347656 -32.757812 L 68.730469 -32.15625 L 60.890625 -32.554688 L 56.671875 -32.15625 L 52.652344 -33.761719 L 51.046875 -37.78125 L 51.246094 -105.910156 L 50.84375 -110.730469 L 51.246094 -118.769531 L 50.644531 -130.226562 L 50.84375 -134.042969 L 48.835938 -138.464844 L 44.816406 -140.875 L 36.976562 -140.875 L 32.957031 -140.074219 L 24.917969 -140.875 L 21.101562 -140.273438 L 16.882812 -138.667969 L 15.074219 -134.246094 L 15.074219 -106.109375 L 14.671875 -102.292969 L 15.074219 -98.273438 L 14.46875 -90.835938 L 14.671875 -86.414062 L 15.074219 -82.597656 Z M 15.273438 -7.234375 "/></g></g></g><g fill="#000000" fill-opacity="1"><g transform="translate(87.875955, 360.065173)"><g><path d="M 9.644531 -5.828125 L 11.65625 -1.609375 L 15.675781 -0.199219 L 75.363281 0.199219 L 79.179688 -1.808594 L 81.390625 -5.425781 L 81.390625 -9.847656 L 80.988281 -13.464844 L 81.59375 -25.722656 L 78.777344 -29.140625 L 65.3125 -33.359375 L 63.101562 -37.378906 L 63.503906 -53.859375 L 62.703125 -61.898438 L 63.503906 -70.335938 L 63.101562 -76.367188 L 63.503906 -82.597656 L 63.101562 -86.414062 L 63.503906 -90.433594 L 63.101562 -94.65625 L 63.101562 -103.09375 L 65.3125 -106.710938 L 69.132812 -108.921875 L 73.554688 -109.125 L 77.371094 -111.335938 L 79.582031 -115.152344 L 79.582031 -127.011719 L 79.984375 -130.628906 L 79.582031 -134.648438 L 77.972656 -138.667969 L 71.542969 -140.476562 L 46.019531 -140.675781 L 41.601562 -140.273438 L 29.339844 -140.476562 L 25.523438 -140.273438 L 17.683594 -140.675781 L 13.265625 -138.667969 L 11.054688 -134.445312 L 11.054688 -130.628906 L 10.652344 -127.210938 L 10.652344 -122.789062 L 11.054688 -118.769531 L 11.054688 -114.953125 L 13.0625 -111.132812 L 25.320312 -106.914062 L 27.933594 -103.296875 L 27.332031 -86.214844 L 27.53125 -82.796875 L 28.136719 -78.175781 L 27.933594 -69.9375 L 27.53125 -65.917969 L 28.335938 -58.078125 L 27.332031 -54.058594 L 28.136719 -45.417969 L 27.734375 -37.582031 L 25.722656 -33.160156 L 12.460938 -28.9375 L 10.046875 -25.121094 L 9.644531 -21.300781 Z M 9.644531 -5.828125 "/></g></g></g><g fill="#000000" fill-opacity="1"><g transform="translate(165.448434, 360.065173)"><g><path d="M 56.671875 -3.617188 L 59.886719 0 L 64.710938 1.808594 L 68.730469 2.210938 L 74.15625 -0.199219 L 77.574219 -3.417969 L 78.777344 -7.234375 L 82.195312 -15.074219 L 84.003906 -18.890625 L 86.011719 -22.308594 L 89.230469 -29.542969 L 90.433594 -33.160156 L 102.492188 -58.882812 L 104.902344 -66.71875 L 109.125 -73.957031 L 111.335938 -81.59375 L 113.546875 -85.609375 L 114.550781 -89.027344 L 115.554688 -92.847656 L 118.367188 -96.464844 L 119.375 -100.28125 L 121.984375 -103.296875 L 125 -111.132812 L 126.003906 -114.75 L 128.214844 -118.167969 L 129.621094 -122.1875 L 131.632812 -126.003906 L 132.4375 -129.421875 L 134.445312 -134.246094 L 133.238281 -139.269531 L 129.824219 -140.476562 L 106.109375 -140.476562 L 101.488281 -138.867188 L 97.871094 -135.046875 L 96.867188 -131.429688 L 72.949219 -72.546875 L 70.941406 -68.730469 L 69.9375 -65.113281 L 67.523438 -61.496094 L 65.113281 -61.09375 L 63.503906 -64.710938 L 60.890625 -72.347656 L 59.285156 -75.964844 L 58.078125 -79.984375 L 56.671875 -83.199219 L 54.460938 -86.816406 L 52.050781 -94.855469 L 50.242188 -98.070312 L 48.835938 -101.6875 L 48.03125 -105.707031 L 40.996094 -120.175781 L 40.394531 -123.996094 L 38.382812 -127.8125 L 36.976562 -131.429688 L 35.167969 -134.648438 L 31.753906 -138.667969 L 27.128906 -140.273438 L 15.875 -140.875 L 12.460938 -140.476562 L 8.84375 -140.875 L 4.621094 -140.675781 L 0.402344 -138.867188 L 0 -134.445312 L 0.804688 -129.621094 L 2.613281 -126.003906 L 5.628906 -118.367188 L 7.4375 -114.75 L 8.640625 -111.132812 L 10.851562 -107.316406 L 14.066406 -99.476562 L 16.078125 -95.859375 L 22.105469 -81.191406 L 24.117188 -77.972656 L 37.378906 -48.03125 L 38.382812 -44.613281 L 41.800781 -37.378906 L 43.007812 -33.5625 L 48.230469 -21.90625 L 50.242188 -18.890625 L 51.246094 -14.671875 Z M 56.671875 -3.617188 "/></g></g></g><g fill="#000000" fill-opacity="1"><g transform="translate(287.233194, 360.065173)"><g><path d="M 9.644531 -5.828125 L 11.65625 -1.609375 L 15.675781 -0.199219 L 75.363281 0.199219 L 79.179688 -1.808594 L 81.390625 -5.425781 L 81.390625 -9.847656 L 80.988281 -13.464844 L 81.59375 -25.722656 L 78.777344 -29.140625 L 65.3125 -33.359375 L 63.101562 -37.378906 L 63.503906 -53.859375 L 62.703125 -61.898438 L 63.503906 -70.335938 L 63.101562 -76.367188 L 63.503906 -82.597656 L 63.101562 -86.414062 L 63.503906 -90.433594 L 63.101562 -94.65625 L 63.101562 -103.09375 L 65.3125 -106.710938 L 69.132812 -108.921875 L 73.554688 -109.125 L 77.371094 -111.335938 L 79.582031 -115.152344 L 79.582031 -127.011719 L 79.984375 -130.628906 L 79.582031 -134.648438 L 77.972656 -138.667969 L 71.542969 -140.476562 L 46.019531 -140.675781 L 41.601562 -140.273438 L 29.339844 -140.476562 L 25.523438 -140.273438 L 17.683594 -140.675781 L 13.265625 -138.667969 L 11.054688 -134.445312 L 11.054688 -130.628906 L 10.652344 -127.210938 L 10.652344 -122.789062 L 11.054688 -118.769531 L 11.054688 -114.953125 L 13.0625 -111.132812 L 25.320312 -106.914062 L 27.933594 -103.296875 L 27.332031 -86.214844 L 27.53125 -82.796875 L 28.136719 -78.175781 L 27.933594 -69.9375 L 27.53125 -65.917969 L 28.335938 -58.078125 L 27.332031 -54.058594 L 28.136719 -45.417969 L 27.734375 -37.582031 L 25.722656 -33.160156 L 12.460938 -28.9375 L 10.046875 -25.121094 L 9.644531 -21.300781 Z M 9.644531 -5.828125 "/></g></g></g><g fill="#000000" fill-opacity="1"><g transform="translate(364.805679, 360.065173)"><g><path d="M 118.570312 -3.214844 L 124.398438 -0.601562 L 129.621094 1.003906 L 134.246094 -1.207031 L 136.054688 -5.425781 L 137.058594 -60.089844 L 136.253906 -65.714844 L 136.65625 -70.136719 L 135.851562 -94.253906 L 136.457031 -102.292969 L 136.054688 -106.109375 L 136.054688 -114.148438 L 136.855469 -118.167969 L 136.457031 -124.195312 L 136.855469 -134.648438 L 134.445312 -138.265625 L 130.023438 -140.273438 L 126.003906 -140.675781 L 122.1875 -140.675781 L 117.765625 -140.273438 L 113.546875 -140.875 L 109.929688 -140.476562 L 105.910156 -140.675781 L 101.085938 -138.667969 L 99.074219 -134.445312 L 98.875 -97.871094 L 99.679688 -93.648438 L 99.679688 -89.832031 L 98.875 -85.609375 L 99.074219 -77.574219 L 98.070312 -74.355469 L 95.257812 -75.160156 L 86.414062 -84.203125 L 83.402344 -86.617188 L 76.367188 -93.851562 L 73.152344 -96.261719 L 70.941406 -99.074219 L 66.71875 -103.496094 L 60.492188 -108.722656 L 58.28125 -111.738281 L 54.460938 -114.347656 L 52.453125 -117.363281 L 49.035156 -119.773438 L 46.421875 -123.191406 L 35.570312 -134.246094 L 27.53125 -139.671875 L 22.105469 -141.277344 L 17.28125 -138.867188 L 14.671875 -135.046875 L 15.074219 -106.914062 L 14.671875 -102.894531 L 15.273438 -94.65625 L 14.871094 -91.039062 L 15.074219 -86.816406 L 14.46875 -82.597656 L 15.273438 -53.859375 L 14.871094 -50.242188 L 14.871094 -46.421875 L 14.46875 -42 L 14.46875 -38.183594 L 15.074219 -33.964844 L 14.871094 -25.722656 L 15.273438 -21.703125 L 14.671875 -14.066406 L 15.273438 -10.046875 L 15.273438 -6.230469 L 17.082031 -1.808594 L 20.902344 0.402344 L 27.734375 0 L 37.78125 0.601562 L 42 0 L 46.625 0.402344 L 50.644531 -1.609375 L 52.453125 -5.628906 L 51.847656 -9.644531 L 52.453125 -58.882812 L 51.648438 -63.101562 L 53.65625 -65.515625 L 56.269531 -64.910156 L 85.007812 -36.777344 L 88.222656 -34.164062 L 107.71875 -14.671875 L 110.328125 -11.453125 L 113.546875 -8.84375 L 115.957031 -5.828125 Z M 118.570312 -3.214844 "/></g></g></g><g fill="#000000" fill-opacity="1"><g transform="translate(502.667673, 360.065173)"><g><path d="M 73.554688 2.410156 L 78.777344 2.613281 L 89.628906 1.609375 L 93.648438 0.804688 L 97.46875 0.601562 L 100.882812 -0.402344 L 115.757812 -6.832031 L 118.570312 -9.246094 L 125.203125 -13.464844 L 131.03125 -19.695312 L 137.460938 -29.140625 L 142.082031 -38.382812 L 144.695312 -47.027344 L 144.894531 -50.84375 L 146.101562 -54.863281 L 146.90625 -70.136719 L 146.304688 -74.15625 L 143.890625 -78.175781 L 138.0625 -79.984375 L 87.621094 -79.984375 L 81.390625 -77.773438 L 79.582031 -73.957031 L 79.179688 -58.882812 L 79.984375 -55.066406 L 81.191406 -51.648438 L 85.007812 -49.839844 L 88.828125 -49.839844 L 92.445312 -49.4375 L 104.503906 -50.039062 L 107.316406 -47.828125 L 108.121094 -44.414062 L 106.511719 -41.199219 L 100.683594 -35.570312 L 97.46875 -33.964844 L 89.832031 -31.550781 L 85.8125 -30.949219 L 79.984375 -30.746094 L 73.753906 -31.148438 L 70.136719 -31.953125 L 66.519531 -33.359375 L 59.285156 -37.179688 L 53.253906 -42 L 51.046875 -45.417969 L 49.4375 -48.835938 L 47.226562 -52.453125 L 45.820312 -56.269531 L 44.613281 -76.367188 L 46.824219 -83.601562 L 47.628906 -87.621094 L 50.644531 -95.054688 L 55.867188 -100.683594 L 62.5 -105.304688 L 65.917969 -106.914062 L 73.753906 -109.527344 L 79.382812 -109.726562 L 89.832031 -108.519531 L 93.648438 -107.515625 L 103.699219 -101.285156 L 105.707031 -98.070312 L 110.128906 -94.855469 L 114.550781 -92.847656 L 134.246094 -92.847656 L 138.0625 -93.246094 L 141.480469 -94.453125 L 142.886719 -98.875 L 136.457031 -113.746094 L 133.640625 -116.558594 L 128.617188 -122.992188 L 122.789062 -128.820312 L 109.125 -137.257812 L 104.703125 -138.464844 L 101.488281 -139.871094 L 97.46875 -140.476562 L 93.046875 -141.679688 L 73.152344 -142.683594 L 60.890625 -140.675781 L 45.617188 -135.25 L 42 -133.441406 L 31.953125 -126.609375 L 25.925781 -120.980469 L 23.3125 -117.566406 L 21.300781 -114.347656 L 18.289062 -111.535156 L 16.078125 -107.71875 L 9.847656 -92.445312 L 9.644531 -88.828125 L 7.4375 -79.984375 L 7.835938 -69.9375 L 7.4375 -64.308594 L 7.636719 -60.089844 L 11.054688 -44.613281 L 15.273438 -33.5625 L 17.484375 -29.742188 L 24.71875 -20.699219 L 30.347656 -14.871094 L 43.207031 -6.230469 L 46.824219 -4.421875 L 58.078125 -0.402344 L 69.332031 2.007812 Z M 73.554688 2.410156 "/></g></g></g><path fill="#000000" d="M 9.582031 375.464844 L 635.65625 375.464844 L 635.65625 508.632812 L 9.582031 508.632812 L 9.582031 375.464844 " fill-opacity="1" fill-rule="nonzero"/><g fill="#ffffff" fill-opacity="1"><g transform="translate(19.482031, 477.55316)"><g><path d="M 25.269531 -2.269531 L 26.921875 -0.414062 L 29.191406 0.929688 L 33.109375 0.824219 L 35.378906 0 L 37.03125 -2.167969 L 37.957031 -3.917969 L 38.578125 -6.1875 L 39.609375 -8.046875 L 40.125 -9.800781 L 41.050781 -11.964844 L 41.566406 -13.617188 L 44.765625 -21.25 L 45.382812 -23.414062 L 47.242188 -27.332031 L 48.582031 -31.355469 L 49.613281 -31.046875 L 50.644531 -29.292969 L 51.265625 -27.128906 L 53.015625 -23.621094 L 58.898438 -7.734375 L 60.445312 -4.332031 L 61.0625 -2.371094 L 63.023438 -0.207031 L 65.394531 1.03125 L 67.355469 0.929688 L 69.109375 0.617188 L 71.582031 -0.207031 L 73.132812 -2.0625 L 73.75 -4.023438 L 74.679688 -5.878906 L 80.867188 -23.828125 L 81.796875 -25.582031 L 85.199219 -34.347656 L 86.023438 -37.234375 L 86.953125 -39.09375 L 87.367188 -40.847656 L 93.964844 -58.382812 L 94.480469 -60.648438 L 95.515625 -62.507812 L 97.472656 -68.800781 L 96.855469 -71.273438 L 94.792969 -71.789062 L 92.730469 -72.097656 L 89.117188 -71.894531 L 84.992188 -72.097656 L 82.828125 -71.894531 L 80.867188 -72.203125 L 78.699219 -71.171875 L 76.949219 -69.003906 L 76.433594 -67.046875 L 75.503906 -65.292969 L 69.832031 -47.136719 L 69.417969 -45.074219 L 68.078125 -40.742188 L 67.355469 -36.410156 L 66.734375 -34.449219 L 65.703125 -34.554688 L 63.640625 -40.433594 L 63.125 -42.496094 L 58.691406 -54.152344 L 57.660156 -58.070312 L 56.832031 -60.03125 L 55.597656 -64.15625 L 54.769531 -65.910156 L 53.945312 -67.765625 L 52.5 -69.832031 L 50.335938 -71.066406 L 48.066406 -71.066406 L 46.003906 -70.035156 L 44.25 -67.972656 L 40.847656 -57.761719 L 39.300781 -54.050781 L 35.585938 -42.082031 L 34.554688 -40.535156 L 34.140625 -38.371094 L 32.59375 -34.449219 L 31.769531 -34.347656 L 31.355469 -36.824219 L 24.753906 -59.308594 L 23.929688 -61.0625 L 22.691406 -65.085938 L 22.28125 -67.148438 L 21.453125 -69.210938 L 19.597656 -70.863281 L 17.636719 -71.789062 L 9.386719 -71.894531 L 7.53125 -72.304688 L 5.671875 -71.996094 L 3.507812 -71.894531 L 1.339844 -71.273438 L 0.929688 -68.902344 L 1.445312 -66.117188 L 5.777344 -54.359375 L 6.703125 -52.605469 L 10.933594 -41.050781 L 11.550781 -38.78125 L 14.441406 -31.046875 L 15.367188 -29.398438 L 23.722656 -5.984375 L 24.652344 -4.023438 Z M 25.269531 -2.269531 "/></g></g></g><g fill="#ffffff" fill-opacity="1"><g transform="translate(113.34476, 477.55316)"><g><path d="M 4.949219 -2.992188 L 5.984375 -0.824219 L 8.046875 -0.101562 L 38.679688 0.101562 L 40.640625 -0.929688 L 41.773438 -2.785156 L 41.773438 -5.054688 L 41.566406 -6.910156 L 41.878906 -13.203125 L 40.433594 -14.957031 L 33.523438 -17.121094 L 32.386719 -19.183594 L 32.59375 -27.644531 L 32.183594 -31.769531 L 32.59375 -36.101562 L 32.386719 -39.195312 L 32.59375 -42.394531 L 32.386719 -44.351562 L 32.59375 -46.417969 L 32.386719 -48.582031 L 32.386719 -52.914062 L 33.523438 -54.769531 L 35.484375 -55.90625 L 37.75 -56.007812 L 39.710938 -57.144531 L 40.847656 -59.101562 L 40.847656 -65.1875 L 41.050781 -67.046875 L 40.847656 -69.109375 L 40.019531 -71.171875 L 36.71875 -72.097656 L 23.621094 -72.203125 L 21.351562 -71.996094 L 15.058594 -72.097656 L 13.101562 -71.996094 L 9.078125 -72.203125 L 6.808594 -71.171875 L 5.671875 -69.003906 L 5.671875 -67.046875 L 5.464844 -65.292969 L 5.464844 -63.023438 L 5.671875 -60.960938 L 5.671875 -59 L 6.703125 -57.039062 L 12.996094 -54.875 L 14.335938 -53.015625 L 14.027344 -44.25 L 14.132812 -42.496094 L 14.441406 -40.125 L 14.335938 -35.894531 L 14.132812 -33.832031 L 14.542969 -29.808594 L 14.027344 -27.746094 L 14.441406 -23.3125 L 14.234375 -19.289062 L 13.203125 -17.019531 L 6.394531 -14.851562 L 5.15625 -12.894531 L 4.949219 -10.933594 Z M 4.949219 -2.992188 "/></g></g></g><g fill="#ffffff" fill-opacity="1"><g transform="translate(155.634527, 477.55316)"><g><path d="M 19.804688 -3.199219 L 20.628906 -1.03125 L 22.796875 0 L 24.753906 -0.207031 L 26.816406 0 L 28.777344 -0.207031 L 35.171875 -0.207031 L 37.234375 -1.03125 L 38.0625 -3.09375 L 37.957031 -5.054688 L 38.164062 -7.425781 L 38.0625 -11.550781 L 37.75 -13.304688 L 38.0625 -15.472656 L 38.265625 -21.765625 L 38.0625 -23.621094 L 38.371094 -27.953125 L 37.957031 -48.480469 L 38.265625 -50.542969 L 38.0625 -52.8125 L 38.886719 -54.667969 L 41.15625 -55.597656 L 42.910156 -55.699219 L 44.972656 -55.597656 L 46.828125 -55.800781 L 52.5 -55.699219 L 54.875 -56.628906 L 55.90625 -58.691406 L 55.699219 -60.855469 L 55.90625 -69.316406 L 54.875 -71.378906 L 52.8125 -72.410156 L 50.335938 -72.203125 L 48.683594 -72.410156 L 46.726562 -72.410156 L 44.457031 -72.097656 L 42.394531 -72.097656 L 40.332031 -72.304688 L 38.265625 -72.304688 L 35.894531 -71.996094 L 5.15625 -72.203125 L 2.886719 -71.171875 L 1.855469 -69.109375 L 1.753906 -58.792969 L 2.886719 -56.523438 L 4.949219 -55.492188 L 7.632812 -55.800781 L 16.8125 -55.699219 L 18.667969 -54.566406 L 19.699219 -52.605469 L 20.011719 -41.257812 L 19.699219 -38.0625 L 19.90625 -36.101562 L 19.699219 -34.039062 L 19.699219 -29.914062 L 20.011719 -26.921875 L 19.597656 -23.828125 L 19.699219 -21.765625 L 19.597656 -19.597656 L 19.90625 -13.304688 L 19.699219 -11.242188 Z M 19.804688 -3.199219 "/></g></g></g><g fill="#ffffff" fill-opacity="1"><g transform="translate(208.754622, 477.55316)"><g><path d="M 7.839844 -2.886719 L 8.664062 -0.722656 L 11.035156 0.207031 L 12.996094 0.207031 L 16.195312 -0.101562 L 19.183594 0 L 21.351562 0.308594 L 23.515625 0.101562 L 25.785156 -0.824219 L 26.613281 -2.886719 L 26.714844 -4.949219 L 26.40625 -7.21875 L 26.613281 -9.078125 L 26.40625 -11.140625 L 26.613281 -13.101562 L 26.507812 -15.367188 L 26.714844 -17.535156 L 26.40625 -25.683594 L 27.4375 -27.851562 L 29.5 -29.085938 L 31.667969 -29.085938 L 33.523438 -28.882812 L 39.609375 -28.882812 L 41.671875 -29.085938 L 43.734375 -28.882812 L 45.695312 -28.882812 L 47.550781 -27.851562 L 48.582031 -25.785156 L 48.890625 -19.496094 L 48.582031 -17.535156 L 48.996094 -10.210938 L 48.582031 -7.117188 L 48.890625 -3.09375 L 49.921875 -0.929688 L 51.984375 0.101562 L 54.050781 -0.101562 L 57.144531 0.207031 L 64.261719 0.207031 L 66.324219 -0.929688 L 67.457031 -2.886719 L 67.871094 -7.117188 L 67.871094 -23.722656 L 67.457031 -27.644531 L 67.5625 -29.707031 L 67.355469 -31.871094 L 67.355469 -33.933594 L 67.664062 -36.101562 L 67.5625 -40.019531 L 67.765625 -42.289062 L 67.457031 -52.398438 L 67.972656 -60.960938 L 67.5625 -62.917969 L 67.355469 -64.878906 L 67.765625 -66.941406 L 67.5625 -69.003906 L 66.53125 -71.066406 L 63.332031 -72.097656 L 58.070312 -72.203125 L 54.769531 -71.894531 L 52.707031 -71.894531 L 49.613281 -70.964844 L 48.789062 -67.972656 L 48.996094 -56.730469 L 48.582031 -54.976562 L 48.582031 -48.996094 L 47.449219 -46.933594 L 45.695312 -45.898438 L 41.566406 -45.898438 L 39.710938 -46.105469 L 29.707031 -46.003906 L 27.539062 -46.933594 L 26.714844 -48.890625 L 26.714844 -55.082031 L 26.921875 -56.9375 L 26.613281 -67.148438 L 26.714844 -68.902344 L 25.476562 -71.066406 L 22.28125 -72.097656 L 16.195312 -71.894531 L 14.132812 -72.097656 L 12.171875 -71.894531 L 8.972656 -70.964844 L 7.839844 -69.210938 L 7.53125 -66.941406 L 7.53125 -64.984375 L 7.734375 -62.714844 L 7.425781 -60.753906 L 7.941406 -54.566406 L 7.632812 -52.296875 L 7.839844 -50.542969 L 7.425781 -48.480469 L 7.839844 -42.1875 L 7.632812 -40.019531 L 7.632812 -34.039062 L 7.941406 -32.078125 L 7.734375 -28.882812 L 7.941406 -26.507812 L 7.632812 -21.660156 L 7.839844 -19.390625 L 7.53125 -17.328125 L 7.839844 -15.472656 L 7.632812 -13.410156 Z M 7.839844 -2.886719 "/></g></g></g><g fill="#ffffff" fill-opacity="1"><g transform="translate(279.718956, 477.55316)"><g><path d="M 38.578125 1.238281 L 44.351562 1.132812 L 50.542969 0.308594 L 58.277344 -2.269531 L 61.683594 -4.125 L 63.230469 -5.363281 L 65.1875 -6.292969 L 68.078125 -8.765625 L 69.417969 -10.625 L 70.863281 -12.066406 L 75.398438 -18.980469 L 76.949219 -22.898438 L 77.773438 -26.816406 L 77.875 -28.675781 L 78.390625 -30.738281 L 78.496094 -32.902344 L 78.90625 -35.894531 L 78.597656 -41.050781 L 77.875 -45.28125 L 75.296875 -53.015625 L 73.335938 -56.832031 L 71.066406 -59.929688 L 68.179688 -63.125 L 65.1875 -65.703125 L 62.816406 -67.355469 L 59.722656 -68.695312 L 58.175781 -69.832031 L 50.234375 -72.304688 L 44.25 -73.335938 L 41.464844 -73.441406 L 30.53125 -71.894531 L 22.796875 -69.003906 L 21.25 -67.871094 L 19.390625 -66.941406 L 15.882812 -64.363281 L 10.832031 -58.484375 L 7.632812 -53.015625 L 6.085938 -49.097656 L 4.332031 -41.15625 L 4.023438 -32.800781 L 4.332031 -30.632812 L 4.847656 -28.777344 L 5.054688 -26.816406 L 5.984375 -22.898438 L 10.726562 -13.511719 L 11.964844 -12.273438 L 13.304688 -10.625 L 14.851562 -9.179688 L 15.988281 -7.839844 L 19.390625 -5.15625 L 27.4375 -1.03125 L 30.429688 0 L 32.699219 0.207031 L 36.410156 1.03125 Z M 44.351562 -17.019531 L 38.679688 -17.019531 L 36.410156 -17.328125 L 32.699219 -18.875 L 31.046875 -19.804688 L 28.261719 -22.074219 L 26.921875 -23.515625 L 25.476562 -25.476562 L 24.960938 -27.128906 L 24.03125 -28.984375 L 23.207031 -32.800781 L 23.207031 -39.09375 L 23.722656 -40.949219 L 24.03125 -42.910156 L 24.859375 -44.765625 L 25.476562 -46.621094 L 27.953125 -49.921875 L 33.109375 -53.429688 L 34.449219 -53.945312 L 38.472656 -54.976562 L 41.363281 -55.183594 L 46.3125 -54.566406 L 48.167969 -54.152344 L 50.027344 -53.328125 L 53.222656 -51.058594 L 57.246094 -46.828125 L 58.484375 -42.910156 L 59.414062 -40.949219 L 59.722656 -39.09375 L 59.515625 -32.800781 L 58.691406 -28.984375 L 57.96875 -27.128906 L 56.832031 -25.269531 L 56.214844 -23.722656 L 54.769531 -22.074219 L 49.820312 -18.667969 L 47.964844 -18.152344 L 46.417969 -17.433594 Z M 44.351562 -17.019531 "/></g></g></g><g fill="#ffffff" fill-opacity="1"><g transform="translate(357.903494, 477.55316)"><g><path d="M 30.429688 0.824219 L 35.378906 1.238281 L 40.535156 1.03125 L 44.664062 0.101562 L 46.828125 -0.722656 L 48.890625 -1.238281 L 50.542969 -2.269531 L 52.398438 -3.09375 L 54.050781 -4.230469 L 58.691406 -8.355469 L 59.824219 -10.210938 L 61.164062 -11.757812 L 61.785156 -13.820312 L 62.816406 -15.574219 L 63.539062 -17.535156 L 64.261719 -27.953125 L 63.949219 -36.308594 L 64.363281 -38.472656 L 64.363281 -40.332031 L 63.949219 -42.394531 L 63.847656 -44.351562 L 64.054688 -46.519531 L 63.949219 -49.40625 L 64.15625 -52.605469 L 64.054688 -54.875 L 64.363281 -56.832031 L 64.054688 -58.898438 L 64.15625 -67.25 L 63.847656 -69.003906 L 63.023438 -71.273438 L 59.722656 -72.203125 L 50.027344 -72.304688 L 47.757812 -71.378906 L 46.726562 -69.109375 L 46.828125 -59 L 46.621094 -56.9375 L 46.726562 -52.914062 L 46.519531 -50.75 L 46.828125 -48.582031 L 46.519531 -40.433594 L 46.933594 -38.578125 L 46.726562 -36.308594 L 46.828125 -32.59375 L 46.621094 -30.53125 L 46.726562 -25.269531 L 46.3125 -21.96875 L 45.382812 -20.011719 L 44.457031 -18.566406 L 42.804688 -17.019531 L 38.679688 -15.679688 L 35.894531 -15.472656 L 32.492188 -15.679688 L 30.632812 -16.195312 L 28.367188 -17.328125 L 26.816406 -18.667969 L 25.582031 -20.113281 L 24.960938 -22.28125 L 24.753906 -40.433594 L 24.445312 -42.496094 L 24.34375 -48.890625 L 24.550781 -50.75 L 24.550781 -59 L 24.238281 -61.992188 L 24.238281 -63.949219 L 24.753906 -67.046875 L 24.753906 -69.210938 L 23.621094 -71.171875 L 21.144531 -72.097656 L 10.316406 -72.203125 L 8.25 -71.066406 L 7.324219 -69.003906 L 7.324219 -62.816406 L 6.808594 -61.0625 L 7.21875 -56.730469 L 6.910156 -52.8125 L 7.425781 -46.621094 L 7.015625 -44.664062 L 7.324219 -42.394531 L 7.117188 -40.433594 L 7.21875 -38.371094 L 7.015625 -36.410156 L 7.324219 -32.285156 L 7.21875 -24.859375 L 7.53125 -21.867188 L 7.53125 -19.699219 L 8.148438 -17.636719 L 8.457031 -15.679688 L 9.078125 -13.71875 L 11.140625 -10.210938 L 13.925781 -6.808594 L 15.265625 -5.464844 L 18.773438 -3.402344 L 20.320312 -2.167969 L 22.28125 -1.339844 L 24.652344 -0.617188 L 26.199219 0.207031 L 28.46875 0.308594 Z M 30.429688 0.824219 "/></g></g></g><g fill="#ffffff" fill-opacity="1"><g transform="translate(424.535689, 477.55316)"><g><path d="M 19.804688 -3.199219 L 20.628906 -1.03125 L 22.796875 0 L 24.753906 -0.207031 L 26.816406 0 L 28.777344 -0.207031 L 35.171875 -0.207031 L 37.234375 -1.03125 L 38.0625 -3.09375 L 37.957031 -5.054688 L 38.164062 -7.425781 L 38.0625 -11.550781 L 37.75 -13.304688 L 38.0625 -15.472656 L 38.265625 -21.765625 L 38.0625 -23.621094 L 38.371094 -27.953125 L 37.957031 -48.480469 L 38.265625 -50.542969 L 38.0625 -52.8125 L 38.886719 -54.667969 L 41.15625 -55.597656 L 42.910156 -55.699219 L 44.972656 -55.597656 L 46.828125 -55.800781 L 52.5 -55.699219 L 54.875 -56.628906 L 55.90625 -58.691406 L 55.699219 -60.855469 L 55.90625 -69.316406 L 54.875 -71.378906 L 52.8125 -72.410156 L 50.335938 -72.203125 L 48.683594 -72.410156 L 46.726562 -72.410156 L 44.457031 -72.097656 L 42.394531 -72.097656 L 40.332031 -72.304688 L 38.265625 -72.304688 L 35.894531 -71.996094 L 5.15625 -72.203125 L 2.886719 -71.171875 L 1.855469 -69.109375 L 1.753906 -58.792969 L 2.886719 -56.523438 L 4.949219 -55.492188 L 7.632812 -55.800781 L 16.8125 -55.699219 L 18.667969 -54.566406 L 19.699219 -52.605469 L 20.011719 -41.257812 L 19.699219 -38.0625 L 19.90625 -36.101562 L 19.699219 -34.039062 L 19.699219 -29.914062 L 20.011719 -26.921875 L 19.597656 -23.828125 L 19.699219 -21.765625 L 19.597656 -19.597656 L 19.90625 -13.304688 L 19.699219 -11.242188 Z M 19.804688 -3.199219 "/></g></g></g><g fill="#ffffff" fill-opacity="1"><g transform="translate(477.655763, 477.55316)"><g/></g></g><g fill="#ffffff" fill-opacity="1"><g transform="translate(501.069811, 477.55316)"><g><path d="M 7.734375 -3.199219 L 8.664062 -1.132812 L 10.625 0.101562 L 14.027344 -0.207031 L 17.121094 0.101562 L 32.078125 -0.101562 L 34.140625 0.207031 L 44.765625 -0.308594 L 46.621094 -0.617188 L 52.398438 -2.269531 L 54.253906 -3.199219 L 58.382812 -6.5 L 61.164062 -10.316406 L 62.199219 -12.378906 L 62.816406 -14.335938 L 63.640625 -16.296875 L 63.847656 -24.652344 L 62.714844 -28.367188 L 60.855469 -32.59375 L 59.515625 -34.140625 L 57.867188 -35.585938 L 56.832031 -37.957031 L 57.554688 -39.917969 L 59.515625 -43.941406 L 60.753906 -47.652344 L 60.855469 -51.160156 L 60.648438 -54.359375 L 59.824219 -58.070312 L 59.101562 -60.238281 L 55.699219 -64.984375 L 54.152344 -66.425781 L 52.605469 -67.457031 L 51.160156 -68.59375 L 49.40625 -69.625 L 47.449219 -70.550781 L 45.695312 -71.171875 L 41.671875 -72.097656 L 31.046875 -72.410156 L 29.191406 -71.996094 L 25.167969 -72.511719 L 23.3125 -72.097656 L 10.832031 -72.304688 L 8.5625 -71.273438 L 7.53125 -69.109375 L 7.53125 -66.839844 L 7.734375 -64.984375 L 7.632812 -62.816406 L 7.734375 -60.960938 L 7.53125 -54.875 L 7.839844 -50.542969 L 7.425781 -30.839844 L 7.734375 -27.746094 L 7.53125 -5.15625 Z M 28.882812 -44.042969 L 26.714844 -45.28125 L 25.582031 -48.167969 L 25.476562 -51.675781 L 26.714844 -54.667969 L 28.675781 -55.90625 L 39.300781 -55.183594 L 40.949219 -54.359375 L 41.773438 -52.707031 L 42.082031 -49.613281 L 41.363281 -46.621094 L 39.816406 -45.382812 L 36.824219 -44.351562 Z M 28.570312 -16.503906 L 26.714844 -17.226562 L 25.375 -19.289062 L 25.683594 -25.476562 L 26.613281 -27.230469 L 28.367188 -28.570312 L 30.324219 -28.261719 L 32.492188 -28.46875 L 42.1875 -27.539062 L 43.941406 -26.816406 L 44.972656 -24.960938 L 45.589844 -22.382812 L 45.074219 -19.390625 L 43.941406 -17.949219 L 42.1875 -16.8125 L 36.515625 -16.296875 Z M 28.570312 -16.503906 "/></g></g></g><g fill="#ffffff" fill-opacity="1"><g transform="translate(564.607618, 477.55316)"><g><path d="M 27.746094 0.929688 L 35.894531 1.132812 L 37.957031 0.929688 L 40.019531 0.414062 L 42.082031 0.101562 L 44.148438 -0.722656 L 46.003906 -0.929688 L 47.964844 -1.855469 L 54.976562 -6.085938 L 57.96875 -9.179688 L 59 -10.625 L 60.132812 -12.894531 L 60.753906 -14.75 L 61.371094 -16.503906 L 61.992188 -21.660156 L 61.785156 -24.960938 L 60.238281 -30.945312 L 59.101562 -32.59375 L 56.421875 -35.6875 L 54.566406 -37.339844 L 52.914062 -38.164062 L 51.058594 -39.300781 L 43.011719 -41.773438 L 40.949219 -42.082031 L 38.886719 -42.1875 L 36.71875 -42.597656 L 33.730469 -42.597656 L 28.261719 -43.734375 L 24.445312 -45.589844 L 22.898438 -47.035156 L 22.484375 -50.128906 L 23 -52.914062 L 24.238281 -54.253906 L 25.785156 -55.390625 L 27.4375 -56.316406 L 29.292969 -56.730469 L 32.59375 -56.832031 L 35.894531 -56.421875 L 37.75 -55.90625 L 39.609375 -54.667969 L 41.363281 -53.222656 L 42.910156 -51.160156 L 45.179688 -49.820312 L 50.027344 -50.234375 L 52.8125 -50.027344 L 54.875 -50.027344 L 56.730469 -49.820312 L 58.691406 -51.265625 L 59.515625 -53.015625 L 59.101562 -54.976562 L 58.898438 -56.9375 L 56.007812 -62.300781 L 53.738281 -65.394531 L 46.933594 -70.140625 L 41.15625 -72.097656 L 37.132812 -72.925781 L 29.191406 -73.132812 L 26.921875 -72.511719 L 24.859375 -72.410156 L 23 -72.097656 L 19.082031 -70.863281 L 15.574219 -68.800781 L 10.625 -65.394531 L 7.015625 -60.546875 L 5.15625 -54.875 L 4.847656 -49.820312 L 4.949219 -46.621094 L 5.671875 -42.496094 L 7.324219 -38.886719 L 11.140625 -34.140625 L 18.152344 -30.324219 L 21.867188 -29.085938 L 38.0625 -27.230469 L 41.773438 -25.476562 L 43.117188 -24.238281 L 43.734375 -21.660156 L 42.910156 -19.082031 L 41.566406 -17.535156 L 38.0625 -15.988281 L 34.863281 -15.78125 L 33.007812 -15.472656 L 27.746094 -15.988281 L 25.992188 -16.917969 L 24.238281 -18.050781 L 20.835938 -21.765625 L 18.773438 -22.589844 L 16.917969 -22.382812 L 14.957031 -22.691406 L 7.015625 -22.28125 L 5.15625 -21.453125 L 4.332031 -19.289062 L 4.640625 -17.226562 L 5.054688 -15.164062 L 5.671875 -13.304688 L 7.632812 -9.488281 L 9.078125 -8.148438 L 10.417969 -6.601562 L 14.027344 -4.332031 L 15.472656 -2.785156 L 17.433594 -1.855469 L 19.496094 -1.238281 L 23.515625 0.207031 Z M 27.746094 0.929688 "/></g></g></g></svg>